<?xml version="1.0" encoding="UTF-8"?>
<svg id="_レイヤー_2" data-name="レイヤー 2" xmlns="http://www.w3.org/2000/svg" width="342.17" height="306.21" viewBox="0 0 342.17 306.21">
  <defs>
    <style>
      .cls-1 {
        fill: #211815;
      }

      .cls-2 {
        fill: #f5f19b;
      }

      .cls-3 {
        fill: #ecbb6e;
      }

      .cls-4 {
        fill: #93c9ce;
      }

      .cls-5 {
        fill: #5c948d;
      }

      .cls-6, .cls-7 {
        fill: #fff;
      }

      .cls-8 {
        fill: #de8a4c;
      }

      .cls-9 {
        fill: #ceeaeb;
      }

      .cls-10 {
        fill: #f2d496;
      }

      .cls-7 {
        stroke: #ceeaeb;
        stroke-miterlimit: 10;
        stroke-width: 2.83px;
      }
    </style>
  </defs>
  <g id="_レイヤー_1-2" data-name="レイヤー 1">
    <g>
      <circle class="cls-9" cx="33.93" cy="165.05" r="30"/>
      <g>
        <circle class="cls-9" cx="308.24" cy="63.21" r="30"/>
        <g>
          <path class="cls-2" d="M310.42,80.64c1.36-.08,2.67-.26,3.94-.54,9.94-2.19,10.3-7.26,10.17-11.48-.13-4.22-1.05-19.35-13.24-20.18-12.19-.82-15.33,8.87-17.69,12.02-2.36,3.15-10.95,12.98,5.17,18.47,1.57.54,3.13.95,4.67,1.23"/>
          <path class="cls-3" d="M312.08,74.43c-.68-1.85-3.68-3.84-5.2-3.62s-4.74,2.07-5.75,2.02-1.7-.74-1.81,1.6,1.71,3.54,4.16,2.68c3.4,1.94,9.76.49,8.6-2.68Z"/>
          <path class="cls-3" d="M312.08,76.83c-.76,3.71-4.97,5.89-6.25,5.34s-2.88-1.43-1.48-4.66c2.52.54,6.97-.12,7.09-1.65.12-1.53.64.97.64.97Z"/>
          <path class="cls-8" d="M305.6,77.84c-.73,1.36-.38,3.09,1.85,2.01s2.23-2.31,2.23-2.31c0,0,1.46-.73-.49,0-1.95.73-3.58.3-3.58.3Z"/>
          <polygon class="cls-5" points="322.53 44.85 316.36 44.27 319.11 49.82 325.4 50.49 322.53 44.85"/>
          <rect class="cls-5" x="315.77" y="47.98" width="6.72" height="2.92" transform="translate(99.97 -187.75) rotate(38.45)"/>
          <path class="cls-10" d="M289.91,66.36c5.1.33,8.05,5.73,6.16,11.51-4.98-2.71-7.76-5.46-6.16-11.51Z"/>
          <path class="cls-10" d="M324.02,68.51c-5.89-.81-10.4,4.26-9.48,10.84,6.25-1.75,10.01-4.04,9.48-10.84Z"/>
          <ellipse class="cls-1" cx="302.07" cy="68.7" rx="1.85" ry="1.71" transform="translate(187.21 356.4) rotate(-81.05)"/>
          <ellipse class="cls-1" cx="312.29" cy="69.76" rx="1.71" ry="1.85" transform="translate(-3.13 15.87) rotate(-2.9)"/>
          <path class="cls-1" d="M301.9,58.94c1.67-.68,3.18-.04,3.88,1.27.17.3-.14.57-.47.4-1.05-.53-2.08-.79-3.21-1.01-.38-.07-.52-.54-.2-.67Z"/>
          <path class="cls-1" d="M315.18,61.48c-1.24-1.31-2.87-1.35-4.06-.46-.28.21-.11.58.26.56,1.18-.05,2.22.15,3.34.42.37.09.69-.27.46-.52Z"/>
          <path class="cls-1" d="M310.42,81.27c-.33,0-.61-.26-.63-.59-.02-.35.25-.65.59-.67,1.31-.08,2.6-.25,3.84-.53,9.95-2.2,9.78-7.4,9.68-10.85-.13-4.34-.82-8.09-2.05-11.15-2.11-5.25-5.67-8.08-10.6-8.42-9.76-.66-13.4,5.55-15.82,9.66-.49.83-.91,1.55-1.33,2.11-.12.16-.25.33-.39.51-1.68,2.19-4.81,6.26-3.62,10.16.85,2.81,3.84,5.1,8.88,6.82,1.52.52,3.06.93,4.58,1.21.34.06.57.39.5.74-.06.34-.39.57-.74.5-1.58-.3-3.17-.72-4.75-1.26-5.45-1.86-8.71-4.43-9.68-7.65-1.37-4.52,2.14-9.1,3.83-11.3.14-.18.27-.35.38-.5.37-.5.78-1.19,1.25-1.99,2.41-4.11,6.45-10.99,16.99-10.28,5.45.37,9.38,3.47,11.68,9.21,1.28,3.2,2,7.09,2.14,11.58.15,4.69-.55,9.88-10.67,12.12-1.3.29-2.66.47-4.04.55-.01,0-.02,0-.04,0Z"/>
          <path class="cls-1" d="M301.13,68.08c-.07,0-.14-.02-.2-.07-.77-.61-1.16-1.23-1.45-2.3-.05-.17.05-.34.22-.39.17-.05.34.05.39.22.29,1.07.66,1.52,1.24,1.97.14.11.16.31.05.44-.06.08-.15.12-.25.12Z"/>
          <path class="cls-1" d="M300.94,68.67c-.81,0-1.69-.47-2.38-1.28-.11-.13-.1-.33.04-.44.13-.11.33-.1.44.04.61.72,1.4,1.12,2.06,1.05.17-.02.33.11.35.28.02.17-.11.33-.28.35-.08,0-.15.01-.23.01Z"/>
          <path class="cls-1" d="M313.49,69.27c-.16,0-.29-.11-.31-.27-.02-.17.1-.33.27-.35.66-.09,1.43-.66,1.86-1.39.09-.15.28-.2.43-.11.15.09.2.28.11.43-.53.9-1.46,1.58-2.32,1.7-.01,0-.03,0-.04,0Z"/>
          <path class="cls-1" d="M314.58,70.53c-.38,0-.76-.07-1.14-.24-.16-.07-.23-.26-.16-.42.07-.16.26-.23.42-.16.86.39,1.82.08,2.49-.24.16-.08.35-.01.42.14.08.16.01.35-.14.42-.51.25-1.18.49-1.89.49Z"/>
          <path class="cls-1" d="M307.12,78.61c-1.07,0-2.22-.33-3.41-.99-2.32.66-3.62.03-4.3-.62-.86-.83-1.19-2.15-.85-3.44.35-1.32.96-1.43,1.86-1.46.65-.01,1.63-.04,3.23-.88,3.58-1.88,5.67-.8,7.72,1.4.21.22.19.57-.03.78-.22.21-.57.19-.78-.03-1.84-1.98-3.4-2.75-6.39-1.17-1.83.96-3.01.99-3.72,1q-.65.01-.82.63c-.24.9-.02,1.83.54,2.37.7.67,1.9.78,3.44.29.15-.05.31-.03.44.05,1.93,1.13,4.68,1.81,6.87-1.38.15-.21.42-.3.66-.2,0,0,.72.29,1.36.43.3.07.49.36.42.66-.07.3-.36.49-.66.42-.41-.09-.83-.23-1.13-.33-1.24,1.64-2.76,2.47-4.47,2.47Z"/>
          <path class="cls-1" d="M306.42,82.78c-.61,0-1.2-.14-1.74-.43-.87-.47-1.42-1.13-1.64-1.97-.44-1.65.61-3.36.66-3.43.16-.26.5-.34.76-.18.26.16.34.5.18.76,0,.01-.84,1.38-.53,2.57.14.54.5.96,1.1,1.28.85.46,1.91.39,2.98-.19,1.52-.82,3.14-2.8,3.35-5.36.02-.3.29-.53.6-.5.3.02.53.29.5.6-.21,2.62-1.75,5.07-3.92,6.24-.77.42-1.55.63-2.29.63Z"/>
          <path class="cls-1" d="M320.88,53.76c-.14,0-.27-.04-.39-.14-.27-.22-.32-.61-.1-.89l2.27-2.88c.13-.17.35-.26.56-.24l1.1.12-2.18-4.3-4.7-.44.66,1.33c.11.21.08.47-.06.66l-1.82,2.42c-.21.28-.61.33-.88.12-.28-.21-.33-.6-.12-.88l1.59-2.11-.99-1.99c-.1-.2-.08-.45.05-.64.13-.19.35-.29.58-.27l6.18.58c.22.02.41.15.5.34l2.87,5.65c.1.21.09.45-.04.64-.13.19-.36.29-.59.27l-1.91-.2-2.05,2.6c-.12.16-.31.24-.5.24Z"/>
        </g>
      </g>
      <path class="cls-7" d="M332.28,102.66H92.9c-4.68,0-8.47,3.79-8.47,8.47v46.8s-9.69,9.69-9.69,9.69h9.69s0,.5,0,.5c0,4.68,3.79,8.47,8.47,8.47h239.38c4.68,0,8.47-3.79,8.47-8.47v-56.99c0-4.68-3.79-8.47-8.47-8.47Z"/>
      <path class="cls-7" d="M9.89,212h239.38c4.68,0,8.47,3.79,8.47,8.47v65.67s9.69,9.69,9.69,9.69h-9.69s0,.5,0,.5c0,4.68-3.79,8.47-8.47,8.47H9.89c-4.68,0-8.47-3.79-8.47-8.47v-75.86c0-4.68,3.79-8.47,8.47-8.47Z"/>
      <path class="cls-7" d="M9.89,1.42h239.38c4.68,0,8.47,3.79,8.47,8.47v47.99s9.69,9.69,9.69,9.69h-9.69s0,.5,0,.5c0,4.68-3.79,8.47-8.47,8.47H9.89c-4.68,0-8.47-3.79-8.47-8.47V9.89c0-4.68,3.79-8.47,8.47-8.47Z"/>
      <g>
        <path d="M18.03,20.67c-.34-.6-.57-.9-1.16-1.58l1.56-.45c.72.94.93,1.26,1.33,2.02h1.95c.54-.65.9-1.22,1.26-2.01l1.63.44c-.39.62-.79,1.15-1.16,1.58h2.22c.69,0,1.12-.03,1.53-.09v1.54c-.45-.06-.79-.07-1.53-.07h-9.78c-.72,0-1.08.01-1.54.07v-1.54c.55.08.81.09,1.54.09h2.13ZM16.65,30.5c0,.74.01,1.12.08,1.54h-1.65c.06-.48.08-.91.08-1.65v-6.19c0-.71-.01-.92-.04-1.29.41.03.76.04,1.35.04h2.79c.75,0,.99-.02,1.29-.04-.03.33-.04.67-.04,1.44v6.18c0,1.12-.33,1.4-1.65,1.4-.21,0-.38,0-.9-.03-.11-.65-.15-.84-.36-1.41.46.07.75.1,1.02.1.33,0,.4-.06.4-.33v-1.23h-2.35v1.47ZM19,25.31v-.99h-2.35v.99h2.35ZM19,27.68v-1.02h-2.35v1.02h2.35ZM23.43,23.15c-.04.42-.06.65-.06,1.38v3.08c0,.9.01,1.14.06,1.54h-1.63c.04-.42.06-.68.06-1.54v-3.09c0-.68-.02-.93-.06-1.37h1.63ZM26.5,22.76c-.06.41-.08.83-.08,1.53v6.06c0,1.31-.39,1.64-1.95,1.64-.34,0-.64-.02-1.54-.06-.1-.6-.19-.93-.45-1.53.78.1,1.32.15,1.75.15.58,0,.66-.06.66-.45v-5.85c0-.81-.02-1.06-.08-1.49h1.68Z"/>
        <path d="M39.75,32.12v-.78h-8.97v.78h-1.68c.06-.46.09-1.06.09-1.86v-9.1c0-.71-.03-1.16-.09-1.74.52.06.99.08,1.69.08h8.92c.71,0,1.17-.02,1.7-.08-.06.52-.08,1-.08,1.74v9.12c0,.78.03,1.48.08,1.84h-1.67ZM30.78,29.91h8.97v-8.98h-8.97v8.98ZM36.78,22.56c.63,0,1-.02,1.38-.04-.03.35-.04.69-.04,1.14v3.43c0,.48.01.78.04,1.14-.44-.03-.78-.04-1.38-.04h-3.08c-.72,0-.95.01-1.39.04.04-.39.06-.71.06-1.14v-3.43c0-.42-.01-.75-.06-1.14.38.03.76.04,1.39.04h3.08ZM33.88,26.84h2.71v-2.92h-2.71v2.92Z"/>
        <path d="M43.48,28.29c.27-.24.34-.3.45-.3.19,0,1.09.66,1.75,1.29.75.69,1.59,1.69,1.59,1.9,0,.14-.03.17-.46.56-.57.52-.69.61-.79.61-.09,0-.18-.06-.25-.21-.53-.93-1.73-2.16-2.79-2.85-.12-.09-.18-.15-.18-.24,0-.1.03-.15.69-.76Z"/>
        <path d="M61.02,23.91c-1.19.12-1.49.13-2.16.13-.46,0-.54-.19-.65-1.53h.58c.74,0,1.4-.04,2.22-.13v-.32c0-.97-.06-1.74-.21-2.55,1.14.06,1.59.12,1.9.21.15.04.21.12.21.27,0,.09-.01.15-.09.3-.13.28-.21.82-.22,1.84.5-.09,1.29-.29,1.89-.46.04-.02.08-.02.1-.02.12,0,.2.06.23.17.08.3.17.9.17,1.12,0,.12-.08.23-.2.27-.18.07-1.27.3-2.23.46v1.94c1.48-.5,2.64-.73,3.63-.73,1.92,0,3.16,1.23,3.16,3.13,0,1.23-.49,2.22-1.38,2.74-.46.27-1.12.44-1.84.44s-1.37-.06-1.53-.17c-.16-.09-.18-.13-.21-.49-.03-.42-.12-.78-.3-1.22.62.23,1.12.31,1.71.31,1.17,0,1.83-.6,1.83-1.66s-.63-1.67-1.63-1.67c-.95,0-2.14.3-3.43.85q0,.06.01.65.01.99.01,1.2c.02.27.02.54.02.68,0,1.21-.46,1.8-1.46,1.8s-1.94-.51-2.54-1.29c-.24-.33-.36-.67-.36-1.08,0-.97.87-1.86,2.76-2.83v-2.37ZM61.02,27.93c-.87.53-1.23.87-1.23,1.19,0,.35.5.72.95.72.21,0,.29-.14.29-.48v-1.43ZM69.39,24.53c-.76-.81-1.81-1.48-2.8-1.8-.12-.04-.18-.1-.18-.18,0-.09.15-.33.57-.9.17-.22.18-.24.33-.24.15.02.72.21,1.11.39.94.44,2.17,1.37,2.17,1.65,0,.27-.75,1.21-.97,1.21-.08,0-.14-.03-.23-.14Z"/>
        <path d="M76.38,24.14c-.55,0-1,.01-1.41.06v-.69c-.76.48-1.39.8-2.34,1.2-.34-.77-.46-.96-.84-1.5,2.7-.94,4.84-2.49,5.89-4.21h1.77c.58.84,1.2,1.47,2.22,2.23,1.18.87,2.26,1.41,3.83,1.92-.36.56-.57.99-.78,1.6-1.17-.5-1.63-.73-2.54-1.29v.74c-.38-.05-.79-.06-1.41-.06h-1.45v1.39h3.64c.76,0,1.17-.01,1.56-.07v1.59c-.39-.06-.9-.09-1.57-.09h-3.63v3.22h3.91c.74,0,1.21-.03,1.7-.09v1.65c-.54-.06-1.12-.09-1.74-.09h-9.09c-.66,0-1.23.03-1.8.09v-1.65c.53.06,1.04.09,1.79.09h3.63v-3.22h-3.4c-.62,0-1.14.03-1.58.09v-1.59c.42.06.84.07,1.58.07h3.4v-1.39h-1.33ZM75.36,27.08c.5.87.75,1.39,1.15,2.4l-1.44.57c-.3-.9-.67-1.67-1.14-2.38l1.42-.58ZM76.35,22.79h4.82c-1.08-.77-1.84-1.47-2.58-2.42-.74.96-1.38,1.58-2.54,2.42h.3ZM83.22,27.68q-.18.33-.71,1.38c-.06.1-.1.2-.6,1.02l-1.35-.51c.44-.71.79-1.47,1.14-2.48l1.51.58Z"/>
        <path d="M90.51,28.04c.04.06.06.1.06.16q0,.09-.25.78c-.32.92-.51,1.67-.57,2.25-.01.19-.08.27-.27.31-.21.06-.61.09-1,.09-.15,0-.22-.03-.27-.12-.13-.28-.38-1.32-.5-2.16-.1-.71-.15-1.44-.15-2.21,0-1.73.2-3.36.74-6.3.09-.48.12-.71.17-1.17.69.09,1.17.23,1.6.44.23.12.32.23.32.36,0,.09-.03.17-.11.29-.61,1.05-1.18,4.29-1.18,6.69,0,.36.01.93.06,1.65.36-.93.52-1.35.85-2.07.11.41.21.6.51,1.01ZM93.03,24.09c-.72,0-.87-.03-.92-.19-.04-.13-.09-.61-.09-.96,0-.12,0-.24.01-.51.41.03.64.04,1.14.04.81,0,1.32-.02,2.1-.08-.02-1.9-.03-2.15-.18-2.85.74.01,1.29.07,1.77.19.22.06.31.13.31.29,0,.06-.01.1-.06.22-.15.35-.23.93-.25,1.98.55-.07,1.03-.18,1.93-.39.08-.03.1-.03.15-.03.09,0,.13.04.17.15.03.14.07.71.07,1.02,0,.38-.01.44-.17.5-.24.12-.9.23-2.17.39,0,1.03.09,2.74.2,3.72.95.4,1.59.75,2.25,1.21.42.3.51.41.51.51,0,.16-.27.67-.58,1.11-.18.25-.27.33-.38.33s-.1,0-.45-.33c-.33-.33-.67-.58-1.33-1.02v.12c0,1.32-1.09,2.19-2.76,2.19s-2.8-.9-2.8-2.25,1.14-2.35,2.66-2.35c.55,0,.84.02,1.24.08q-.06-1.17-.1-3.18c-.65.04-1.67.09-2.26.09ZM94.26,28.5c-.75,0-1.25.34-1.25.87,0,.48.46.78,1.19.78.79,0,1.21-.36,1.21-1.05,0-.21-.02-.38-.02-.38-.39-.15-.73-.23-1.14-.23Z"/>
        <path d="M109.68,25.47v-7.03h4.79v1.63h-3v5.4h-1.79Z"/>
        <path d="M116.68,26.24c0-.44.02-.93.05-1.6-.32.56-.54.92-1.02,1.52-.18-.69-.34-1.12-.64-1.71,1.32-1.46,2.43-3.82,2.68-5.73l1.65.39c-.53,1.65-.68,2.06-1.19,3.19v8.19c0,.63.01,1.08.08,1.66h-1.7c.08-.55.09-.96.09-1.68v-4.23ZM124.17,26.96c-.17.9-.38,1.5-.81,2.2,1.54.83,3,1.17,5.42,1.26-.27.51-.48,1.06-.63,1.6-2.42-.26-4.08-.78-5.67-1.79-.81.78-1.74,1.32-3.19,1.85-.27-.53-.57-.98-.89-1.35,1.32-.38,2.16-.77,2.91-1.4-.36-.33-.57-.57-.9-.99-.2-.26-.3-.39-.45-.53l1.26-.67c.18.36.46.72.95,1.15.27-.46.4-.82.51-1.35h-2.1c-.48,0-.83.01-1.17.06.03-.42.04-.71.04-1.2v-2.01c0-.6-.02-.87-.04-1.21.4.03.66.04,1.32.04h2.24c0-.08,0-.42-.02-1.04h-2.37c-.58,0-.95.02-1.38.06v-1.54c.42.06.99.09,1.54.09h2.21c-.01-.75-.03-.99-.09-1.45h1.65q-.04.42-.04,1.45h2.5c.66,0,1.11-.03,1.63-.09v1.54c-.44-.04-.86-.06-1.44-.06h-2.7v1.04h2.13c.61,0,.94-.02,1.35-.04-.03.36-.04.73-.04,1.26v1.86c0,.67.01.94.04,1.31-.42-.05-.74-.06-1.41-.06h-2.35ZM120.94,24.02v1.57h1.9c.04-.58.06-.72.09-1.57h-1.99ZM124.42,24.02c-.01.52-.04,1.05-.09,1.57h2.04v-1.57h-1.95Z"/>
        <path d="M130.86,22.02c0-.44-.02-1.02-.04-1.35.69.07,1.2.18,1.6.33.36.14.48.23.48.39q0,.09-.06.24c-.2.51-.25,1.08-.25,2.44,0,1.92.12,3.12.42,4.03.22.71.57,1.11.97,1.11.62,0,1.12-.72,1.68-2.38.28.77.39.99.81,1.53.08.1.12.21.12.31,0,.24-.22.75-.53,1.19-.58.85-1.33,1.32-2.13,1.32-1.15,0-2.02-.93-2.56-2.77-.34-1.2-.51-2.71-.51-4.81v-1.58ZM139.78,22.26c.09,0,.17.04.29.15.75.72,1.53,1.92,2.03,3.09.33.79.64,1.86.64,2.17,0,.15-.08.23-.39.39-.34.18-1.05.42-1.23.42-.13,0-.19-.08-.24-.34-.2-1.16-.46-2-.93-2.97-.42-.87-.45-.92-1.47-2.17.63-.46,1.12-.73,1.3-.73Z"/>
        <path d="M149.97,20.06c0-.46-.03-.84-.09-1.19h1.84c-.06.29-.09.68-.09,1.19v.89h3.97c.81,0,1.33-.03,1.82-.11v1.76c-.44-.06-.92-.09-1.77-.09h-5.26q-.01.12-.01.29c-.03.52-.06.81-.11,1.26h3.99c.76,0,1.14-.01,1.5-.06-.02.06-.02.1-.02.14-.03.23-.03.33-.06,1-.08,2.27-.24,3.99-.5,5.05-.33,1.37-.81,1.73-2.25,1.73-.51,0-.84-.02-1.95-.09-.06-.68-.18-1.16-.4-1.68.81.14,1.51.19,2.16.19s.76-.16.96-1.15c.18-.87.25-1.73.31-3.61h-3.97c-.62,2.91-1.89,4.72-4.63,6.52-.36-.63-.62-.95-1.16-1.38,1.28-.78,1.88-1.27,2.58-2.11,1.25-1.5,1.72-3.15,1.8-6.09h-2.35c-.72,0-1.32.03-1.82.09v-1.76c.53.08,1.05.11,1.8.11h3.71v-.89Z"/>
        <path d="M163.23,25.46v7.02h-4.78v-1.63h3.01v-5.38h1.77Z"/>
        <path d="M174.67,24.75c-.12.03-.18.06-.27.1-.08.04-.12.06-.18.06-.33,0-.57-.57-.75-1.68h.29c.63,0,2.24-.2,3.2-.39.31-1.31.48-2.31.48-3.02,0-.06,0-.15-.01-.25.64.06,1.26.19,1.68.38.24.09.36.21.36.36,0,.08-.02.14-.09.26q-.23.39-.69,2.04c.36-.04.76-.07,1.02-.07.62,0,1.1.12,1.44.36.6.44.9,1.32.9,2.69,0,2.23-.41,4.15-1.1,5.1-.48.66-1.11.98-2,.98-.54,0-1.05-.08-1.2-.17q-.12-.08-.17-.63c-.04-.41-.13-.77-.32-1.19.78.27.98.31,1.46.31.72,0,1.02-.35,1.35-1.56.23-.79.35-1.81.35-2.92,0-1.17-.29-1.59-1.08-1.59-.27,0-.71.04-1.05.09-.04.18-.06.2-.12.39-.42,1.54-1.19,3.55-1.95,5.17-.79,1.63-.99,1.96-1.18,1.96-.12,0-.53-.21-.96-.5-.35-.21-.44-.3-.44-.42q0-.07.62-1.05c.83-1.27,1.91-3.77,2.28-5.25-1.11.25-1.73.39-1.86.44ZM184.09,21.68c-.24.18-.41.25-.48.25-.04,0-.09-.03-.13-.1-.32-.51-.84-1.1-1.28-1.47-.03-.03-.04-.06-.04-.09,0-.06.11-.17.36-.36.25-.18.33-.23.43-.23.24,0,1.56,1.33,1.56,1.58,0,.09-.12.19-.42.42ZM182.5,23.27c0-.1.13-.24.57-.58.3-.23.45-.31.57-.31.2,0,.87.72,1.5,1.6.52.75,1.09,1.81,1.09,2.07,0,.15-.04.19-.52.58-.3.24-.65.44-.77.44-.1,0-.15-.04-.25-.3-.29-.72-.54-1.21-.95-1.86-.4-.65-.43-.67-1.15-1.45-.06-.08-.09-.12-.09-.18ZM184.47,18.66c.25,0,1.53,1.27,1.53,1.53,0,.07-.09.17-.39.38-.27.21-.41.28-.46.28q-.08,0-.38-.42c-.25-.34-.74-.85-1-1.08-.04-.04-.08-.07-.08-.12,0-.12.62-.57.78-.57Z"/>
        <path d="M195.1,23.84c.34,1.29,1.11,2.69,2.07,3.77,1.06,1.23,2.26,2.04,3.97,2.74-.5.57-.69.89-1.05,1.65-2.85-1.45-4.65-3.37-5.73-6.12-.43,1.47-1.2,2.73-2.35,3.85-.97.97-2.01,1.65-3.43,2.28-.24-.56-.54-1-1-1.52,1.75-.7,3-1.56,3.93-2.68.9-1.1,1.38-2.25,1.63-3.98h-3.39c-.92,0-1.33.02-1.82.09v-1.8c.45.06.98.09,1.82.09h3.54c.03-.66.04-1.01.04-1.58,0-.72-.03-1.15-.11-1.57h1.91c-.08.51-.09.7-.11,1.69,0,.61-.01.94-.03,1.46h3.81c.81,0,1.33-.03,1.81-.09v1.8c-.55-.06-1-.09-1.8-.09h-3.72Z"/>
        <path d="M207.86,26.07h-3.4c-.53,0-.93.02-1.32.06v-1.26c.33.04.72.06,1.35.06h3.38v-.56h-3.04c-.51,0-.87.02-1.21.04.03-.31.04-.6.04-.97v-.95c0-.4-.01-.63-.04-1,.41.03.69.04,1.23.04h3.03v-.54h-3.94c-.72,0-1.17.02-1.68.08v-1.42c.45.06.93.09,1.77.09h3.85c-.01-.51-.03-.66-.09-.99h1.72c-.06.31-.07.45-.09.99h4.05c.84,0,1.3-.03,1.77-.09v1.42c-.48-.04-.99-.08-1.68-.08h-4.14v.54h3.27c.56,0,.84-.01,1.2-.04-.03.33-.04.56-.04,1v.95c0,.45.02.66.04.97-.33-.03-.67-.04-1.14-.04h-3.33v.56h3.25c.84,0,1.08-.02,1.53-.04-.04.38-.04.55-.04,1.3v.51c.63,0,.94-.03,1.25-.08v1.36c-.35-.04-.62-.07-1.25-.07v.84c0,.77.01,1.11.07,1.54h-1.6v-.56h-3.21v.81c0,1.29-.36,1.56-2.1,1.56-.36,0-.88-.02-1.4-.04-.07-.58-.17-.87-.43-1.44.76.09,1.3.13,1.8.13s.58-.06.58-.34v-.68h-3.39c-.63,0-1,.02-1.42.06v-1.32c.39.04.63.06,1.38.06h3.43v-.63h-4.12c-.81,0-1.21.01-1.59.07v-1.36c.39.06.72.08,1.56.08h4.15v-.63ZM205.17,22.67v.58h2.68v-.58h-2.68ZM209.4,23.25h2.89v-.58h-2.89v.58ZM212.61,26.7v-.63h-3.21v.63h3.21ZM209.4,28.55h3.21v-.63h-3.21v.63Z"/>
        <path d="M217.65,23.85h-.09c-.08.02-.13.02-.17.02-.13,0-.21-.06-.25-.26-.09-.37-.15-.82-.18-1.41.21.02.38.02.48.02.81,0,1.75-.06,2.55-.17.15-.99.23-1.74.23-2.37v-.34c1.74.24,2.07.33,2.05.6,0,.08-.03.12-.09.26-.18.34-.2.39-.44,1.57.58-.1,1.33-.3,1.64-.4.06-.03.07-.03.12-.03.13,0,.16.06.28.58.06.3.12.72.12.84,0,.11-.04.17-.18.2q-.27.09-2.33.45c-.69,3.06-1.41,5.29-2.56,7.99-.08.2-.15.27-.24.27-.2,0-.72-.21-1.23-.49-.26-.14-.33-.2-.33-.29,0-.06.04-.17.12-.31,1.14-2.16,1.96-4.45,2.53-6.91-.66.07-1.12.12-2.04.19ZM224.06,29.55c.43.29,1.06.42,1.95.42.97,0,1.81-.09,2.29-.24.12-.03.15-.04.21-.04.13,0,.19.04.24.18.11.31.18.93.18,1.4,0,.19-.06.27-.25.31-.5.1-1.33.17-2.22.17-1.88,0-2.92-.3-3.61-1.02-.25-.27-.46-.6-.58-.98-.09-.22-.15-.48-.15-.57,0-.25.45-.52,1.23-.78.17.63.34.92.72,1.15ZM228.27,25.19c-.3-.04-.93-.08-1.46-.08-1.11,0-1.58.05-2.89.27-.03.02-.08.02-.11.02-.09,0-.13-.03-.17-.12-.04-.1-.1-.84-.1-1.15,0-.19.03-.29.15-.33.06-.03.15-.04.46-.1,1.02-.18,1.88-.25,2.92-.25.87,0,1.32.03,1.43.1.07.06.09.18.09.67,0,.44-.03.83-.06.92-.01.04-.08.08-.15.08-.03,0-.08,0-.12-.02ZM226.62,19.91c.2,0,1.47,1.42,1.47,1.65,0,.06-.1.19-.22.29-.06.04-.15.12-.25.21-.13.12-.18.15-.33.21t-.08.03c-.06,0-.06-.01-.34-.45-.25-.39-.74-.99-.99-1.22-.03-.03-.08-.09-.08-.1.03-.06.05-.09.05-.09.07-.09.33-.3.39-.34.15-.08.24-.14.25-.15.01-.03.03-.03.04-.03h.09ZM229.15,20.96c-.21.15-.36.24-.43.24-.06,0-.09-.03-.17-.15-.33-.54-.65-.93-1.14-1.43-.04-.04-.06-.07-.06-.12,0-.14.57-.56.76-.56.11,0,.29.15.62.5.48.49.83.94.83,1.09,0,.09-.11.19-.41.42Z"/>
        <path d="M234.71,24.39c1.89-.52,3.25-.77,4.27-.77,2.12,0,3.42,1.16,3.42,3.03,0,1.12-.46,2.12-1.35,2.87-.58.49-1.46.91-2.61,1.26-.64.18-1.33.31-1.63.31-.18,0-.27-.04-.33-.19-.21-.52-.45-.9-.76-1.21,3.3-.35,4.98-1.4,4.98-3.1,0-.87-.72-1.54-1.65-1.54-1.62,0-3.39.54-5.25,1.57-.15.08-.24.12-.3.12-.25,0-.67-.75-1.02-1.83.74-.1.99-.17,2.24-.51Z"/>
        <path d="M16.81,49.22c-.39.09-.53.13-1.07.33-.19.08-.3.1-.39.1-.33,0-.63-.61-.9-1.9.96-.04,1.31-.09,2.97-.34,1.8-.27,4.08-.62,5.28-.77,1.35-.18,2.43-.36,3-.48.1-.03.15-.03.22-.03.2,0,.27.09.41.47.12.31.21.76.21.98,0,.18-.06.24-.27.24-.32,0-.6.03-.89.08-2.53.42-4.56,2.64-4.56,4.98,0,1.75,1.38,2.91,3.72,3.12.21.01.29.09.29.27,0,.38-.15,1.09-.29,1.42-.08.17-.19.24-.39.24s-.65-.09-1.11-.22c-2.55-.75-3.88-2.37-3.88-4.67,0-1.25.41-2.4,1.19-3.39.42-.54.78-.84,1.63-1.43-1.96.33-4.04.72-5.17,1.01Z"/>
        <path d="M29.64,48.27c0-.44-.02-1.02-.04-1.35.69.07,1.2.18,1.6.33.36.14.48.23.48.39q0,.09-.06.24c-.2.51-.25,1.08-.25,2.44,0,1.92.12,3.12.42,4.03.22.71.57,1.11.97,1.11.62,0,1.12-.72,1.68-2.38.28.77.39.99.81,1.53.08.1.12.21.12.31,0,.24-.22.75-.53,1.19-.58.85-1.33,1.32-2.13,1.32-1.15,0-2.02-.93-2.56-2.77-.34-1.2-.51-2.71-.51-4.81v-1.58ZM38.56,48.51c.09,0,.17.04.29.15.75.72,1.53,1.92,2.03,3.09.33.79.64,1.86.64,2.17,0,.15-.08.23-.39.39-.34.18-1.05.42-1.23.42-.13,0-.19-.08-.24-.34-.2-1.16-.46-2-.93-2.97-.42-.87-.45-.92-1.47-2.17.63-.46,1.12-.73,1.3-.73Z"/>
        <path d="M47.86,49.2c.97-.25,1.62-.35,2.33-.35,2.13,0,3.36,1.26,3.36,3.42,0,1.88-.81,3.39-2.45,4.59-.87.65-2.19,1.29-2.62,1.29-.2,0-.24-.04-.56-.5-.22-.34-.45-.55-.82-.82,1.72-.58,2.44-.96,3.22-1.64.9-.79,1.35-1.75,1.35-2.89,0-1.22-.57-1.91-1.58-1.91-.81,0-1.86.31-3.22.98-.2.09-.3.17-.55.35-.06.03-.12.06-.18.06-.29,0-.77-.84-1.1-1.96.56-.04.84-.12,2.82-.61ZM48.87,45.54c.54.17,1.35.32,2.08.41.3.03.41.04,1.17.07.22,0,.29.06.29.23,0,.5-.11,1.31-.2,1.46-.03.09-.1.12-.21.12-.34,0-1.56-.17-2.26-.31-1.19-.24-2.22-.54-2.43-.71-.05-.04-.08-.1-.08-.17,0-.12.31-.93.46-1.21.08-.12.12-.15.21-.15q.08,0,.96.27Z"/>
        <path d="M57.66,47.45c.36.06.62.07,1.16.07h2.96c.6,0,.81-.01,1.15-.06v1.43c-.3-.03-.5-.04-1.09-.04h-3.01c-.51,0-.77.01-1.16.06v-1.45ZM58.12,45.47c.38.04.62.06,1.2.06h2.1c.58,0,.83-.02,1.2-.06v1.4c-.36-.03-.67-.04-1.2-.04h-2.1c-.5,0-.84.01-1.2.04v-1.4ZM59.65,58.35h-1.5c.06-.44.08-.81.08-1.36v-2.28c0-.47-.02-.72-.06-1.12.38.03.66.04,1.1.04h2.41c.57,0,.71,0,.96-.04-.03.31-.03.52-.03,1.03v2.42c0,.54.01.78.04,1.12h-1.41v-.5h-1.59v.69ZM58.17,49.53c.32.03.48.04.95.04h2.58c.46,0,.63,0,.92-.04v1.38c-.32-.03-.51-.04-.92-.04h-2.58c-.43,0-.66.01-.95.04v-1.38ZM58.17,51.54c.32.03.48.04.95.04h2.56c.5,0,.62,0,.93-.04v1.38c-.3-.03-.48-.04-.95-.04h-2.56c-.44,0-.66.02-.93.04v-1.38ZM59.61,56.39h1.63v-1.48h-1.63v1.48ZM65.94,47.4c-.93.12-1.15.15-2.52.28-.1-.46-.24-.79-.53-1.41,2.58-.08,5.57-.66,6.71-1.29l.87,1.38c-.15.03-.2.04-.38.1-1.07.3-1.83.5-2.61.66v2.08h1.59c.72,0,1.17-.03,1.6-.09v1.58c-.45-.06-.93-.09-1.6-.09h-1.59v1.89h1.61c.48,0,.75-.02,1.06-.04-.03.33-.04.69-.04,1.23v3.09c0,.6.03,1.12.08,1.53h-1.62v-.66h-3.55v.66h-1.59c.04-.4.06-.79.06-1.48v-3.24c0-.5-.02-.72-.05-1.12.35.03.65.04,1.05.04h1.45v-1.89h-1.26c-.72,0-1.15.03-1.62.09v-1.58c.5.08.92.09,1.64.09h1.24v-1.81ZM65.01,56.25h3.55v-2.37h-3.55v2.37Z"/>
        <path d="M78.46,53.72c-1.48.87-1.91,1.31-1.91,1.96,0,.27.11.45.33.58.33.2,1.07.3,2.01.3.81,0,1.93-.08,2.7-.18.32-.04.5-.09,1.09-.24h.08c.11,0,.18.07.23.18.09.31.15.77.15,1.31,0,.23-.08.31-.27.36-.36.08-2.03.17-3.12.17-1.83,0-2.8-.12-3.52-.42-.87-.36-1.31-1.04-1.31-1.98,0-.87.41-1.63,1.21-2.28.65-.51.79-.62,2.17-1.4-.12-.5-.34-.71-.81-.71-.62,0-1.26.24-1.96.71-.43.3-.95.72-1.26,1.03-.45.47-.5.5-.62.5-.15,0-.46-.34-.78-.87-.15-.25-.24-.45-.24-.55,0-.14.03-.17.39-.39,1.23-.82,2.25-1.88,2.87-2.95-1.07.07-1.62.09-2.21.09-.23,0-.27-.04-.34-.3-.05-.2-.12-.99-.14-1.4.51.07.81.09,1.53.09.58,0,1.23-.02,1.91-.04.31-.85.42-1.4.43-2.1,1.33.23,1.95.45,1.95.71,0,.06-.02.09-.06.18-.1.19-.22.43-.42.9q-.03.06-.04.1c.86-.12,1.61-.27,2.13-.39.33-.09.41-.1.48-.1.12,0,.18.04.21.14.06.27.15.96.15,1.17,0,.16-.06.24-.25.28-.48.14-2.13.39-3.51.52-.45.83-.76,1.31-1.23,1.81.67-.31,1.18-.43,1.78-.43.68,0,1.12.39,1.43,1.23,1.48-.81,2.28-1.24,2.37-1.3.69-.4.98-.63,1.31-1,.61.63,1.27,1.57,1.27,1.83,0,.09-.06.15-.25.2-.74.19-2.1.78-4.38,1.89.01.27.04.96.04,1.44v.72c0,.18-.03.27-.1.31-.08.08-.48.12-.93.12-.51,0-.6-.04-.6-.29v-.06c.03-.44.04-1,.04-1.36v-.08Z"/>
        <path d="M91.44,45.77c.37.1.48.18.48.35,0,.1-.01.15-.09.36-.17.44-.29,1.2-.34,2.25-.12,2.42-.18,4.29-.18,5.77,0,.48.04.84.12,1.08.17.5.69.75,1.53.75,1.35,0,2.62-.55,3.79-1.65.54-.51.87-.92,1.42-1.74.09.48.21.79.54,1.47.04.12.08.21.08.35,0,.27-.29.63-1.04,1.3-1.49,1.33-3.13,2.02-4.86,2.02-1.14,0-1.98-.28-2.52-.82-.57-.6-.79-1.38-.79-2.86,0-1.17.01-2.07.13-5.56.02-.52.03-.84.03-.98,0-1.27-.01-1.65-.11-2.29.77.03,1.35.09,1.8.21Z"/>
        <path d="M102.07,49.92h-.09c-.08.02-.14.02-.17.02-.13,0-.21-.06-.25-.25-.09-.38-.15-.84-.18-1.41.21.02.38.02.48.02.81,0,1.75-.06,2.55-.17.15-.99.22-1.75.22-2.37v-.35c1.74.23,2.07.33,2.06.6,0,.07-.03.12-.09.25-.18.35-.19.39-.43,1.57.58-.1,1.33-.3,1.63-.4.06-.03.08-.03.12-.03.13,0,.17.06.29.58.06.3.12.72.12.84,0,.1-.04.17-.18.19q-.27.09-2.32.45c-.69,3.04-1.41,5.29-2.57,7.99-.08.19-.15.27-.24.27-.2,0-.72-.21-1.23-.5-.25-.13-.33-.21-.33-.29,0-.06.04-.16.12-.31,1.14-2.16,1.96-4.45,2.54-6.93-.66.09-1.12.14-2.04.21ZM108.48,55.62c.44.29,1.07.42,1.95.42.97,0,1.82-.09,2.29-.24.12-.03.15-.04.21-.04.13,0,.2.04.24.18.1.31.18.93.18,1.39,0,.2-.06.27-.25.31-.5.11-1.33.17-2.22.17-1.88,0-2.92-.3-3.62-1.02-.25-.27-.46-.62-.58-.99-.09-.21-.15-.46-.15-.55,0-.26.45-.53,1.23-.78.17.63.34.9.72,1.15ZM112.69,51.26c-.3-.04-.93-.07-1.46-.07-1.11,0-1.57.04-2.89.27-.03.01-.08.01-.1.01-.09,0-.14-.03-.17-.12-.04-.1-.11-.84-.11-1.16,0-.19.03-.28.15-.33.06-.03.15-.04.46-.1,1.02-.18,1.88-.25,2.92-.25.87,0,1.32.03,1.42.1.08.06.09.18.09.68,0,.43-.03.82-.06.91-.02.05-.08.08-.15.08-.03,0-.08,0-.12-.02Z"/>
        <path d="M118.48,55.8q0-1.63.01-2.34c-.75.83-1.26,1.48-1.51,1.95-.08.15-.18.24-.27.24-.15,0-.51-.31-.99-.85-.19-.24-.28-.38-.28-.44q0-.1.76-.85c.64-.65,1.51-1.67,2.33-2.74,0-.09,0-.44.01-1.04-.74.13-1.68.39-1.93.52-.15.08-.18.09-.25.09-.26,0-.47-.58-.66-1.75.79-.01,1.79-.12,2.88-.3,0-.54.01-1.31.01-1.73,0-.45-.03-.81-.09-1.11.95.06,1.41.12,1.83.23.22.06.31.15.31.31,0,.08-.03.15-.09.3-.15.3-.17.41-.29,1.59.36.22.71.6.71.79q0,.13-.46.7c-.04.06-.18.26-.41.54q-.01.48-.01.58c1.47-1.24,2.71-1.77,4.18-1.77,2.34,0,3.81,1.48,3.81,3.87,0,1.83-.84,3.19-2.57,4.12-.66.38-1.79.78-2.12.78-.09,0-.19-.03-.24-.09t-.23-.3c-.25-.36-.54-.65-.84-.85,2.99-.81,4.17-1.86,4.17-3.7,0-1.44-.85-2.37-2.21-2.37-.88,0-1.69.29-2.65.92q-.48.31-1.33,1.04.01.12.01.31c0,1.6,0,1.74.09,4.89.02.17.02.29.02.31,0,.29-.21.35-1.31.35-.39,0-.42-.04-.42-.47l.02-1.74Z"/>
        <path d="M132.64,49.7c-1.06.18-1.3.22-1.56.3-.15.04-.27.06-.36.06-.27,0-.4-.48-.46-1.65.87,0,1.35-.04,2.42-.24,0-.48.01-1.03.01-1.23,0-.58-.03-1.09-.09-1.47,1.58.07,2.04.18,2.04.46q0,.08-.13.39t-.2,1.62c.48.38.74.68.72.87,0,.04-.03.08-.09.14-.22.19-.25.22-.52.61q-.06.08-.15.19l-.06.09c0,.23,0,.25-.02.54.45-.51.87-.93,1.28-1.26,1.32-1.08,2.31-1.53,3.39-1.53s1.77.44,2.29,1.33c.45.78.69,1.88.69,3.17,0,.78-.06,1.38-.23,2.5.72.51,1.5,1.3,1.5,1.51,0,.24-.84,1.08-1.09,1.08-.11,0-.12-.02-.32-.31-.12-.17-.28-.36-.61-.72-.21.39-.33.56-.54.75-.56.51-1.3.78-2.19.78-1.56,0-2.56-.79-2.56-2,0-1.27,1.04-2.23,2.4-2.23.78,0,1.35.1,1.86.33.06-.56.08-.83.08-1.31,0-2.37-.45-3.3-1.59-3.3-.81,0-1.89.57-3.03,1.59-.41.38-.72.69-1.37,1.4v.87c0,1.99.04,4,.11,4.53v.06c0,.27-.21.34-.93.34-.66,0-.79-.06-.79-.34v-.12c.03-.44.04-.96.04-1.62q0-.99.01-2.17s-.03.04-.06.08c-.33.4-.87,1.14-1.22,1.63-.17.24-.25.31-.36.31-.15,0-.42-.27-.88-.87-.18-.23-.29-.42-.29-.5s.08-.17.45-.5c.27-.25,1.29-1.5,1.81-2.19.27-.38.46-.65.58-.84v-1.15ZM138.39,54.84c-.69,0-1.11.29-1.11.75s.32.69.89.69c.5,0,.9-.15,1.17-.45.13-.14.34-.51.34-.57h0c-.51-.33-.81-.42-1.29-.42Z"/>
        <path d="M152.1,56.84c0,.66-.53,1.18-1.18,1.18s-1.19-.52-1.19-1.18.53-1.19,1.19-1.19,1.18.52,1.18,1.19ZM151.57,54.62h-1.33l-.41-8.98h2.16l-.42,8.98Z"/>
      </g>
      <g>
        <circle class="cls-9" cx="308.24" cy="272.17" r="30"/>
        <g>
          <path class="cls-2" d="M310.42,289.6c1.36-.08,2.67-.26,3.94-.54,9.94-2.19,10.3-7.26,10.17-11.48-.13-4.22-1.05-19.35-13.24-20.18-12.19-.82-15.33,8.87-17.69,12.02-2.36,3.15-10.95,12.98,5.17,18.47,1.57.54,3.13.95,4.67,1.23"/>
          <path class="cls-3" d="M312.08,283.39c-.68-1.85-3.68-3.84-5.2-3.62s-4.74,2.07-5.75,2.02-1.7-.74-1.81,1.6,1.71,3.54,4.16,2.68c3.4,1.94,9.76.49,8.6-2.68Z"/>
          <path class="cls-3" d="M312.08,285.79c-.76,3.71-4.97,5.89-6.25,5.34s-2.88-1.43-1.48-4.66c2.52.54,6.97-.12,7.09-1.65.12-1.53.64.97.64.97Z"/>
          <path class="cls-8" d="M305.6,286.8c-.73,1.36-.38,3.09,1.85,2.01s2.23-2.31,2.23-2.31c0,0,1.46-.73-.49,0-1.95.73-3.58.3-3.58.3Z"/>
          <polygon class="cls-5" points="322.53 253.81 316.36 253.23 319.11 258.78 325.4 259.46 322.53 253.81"/>
          <rect class="cls-5" x="315.77" y="256.94" width="6.72" height="2.92" transform="translate(229.92 -142.42) rotate(38.45)"/>
          <path class="cls-10" d="M289.91,275.32c5.1.33,8.05,5.73,6.16,11.51-4.98-2.71-7.76-5.46-6.16-11.51Z"/>
          <path class="cls-10" d="M324.02,277.48c-5.89-.81-10.4,4.26-9.48,10.84,6.25-1.75,10.01-4.04,9.48-10.84Z"/>
          <ellipse class="cls-1" cx="302.07" cy="277.66" rx="1.85" ry="1.71" transform="translate(-19.2 532.86) rotate(-81.05)"/>
          <ellipse class="cls-1" cx="312.29" cy="278.72" rx="1.71" ry="1.85" transform="translate(-13.69 16.14) rotate(-2.9)"/>
          <path class="cls-1" d="M301.9,267.9c1.67-.68,3.18-.04,3.88,1.27.17.3-.14.57-.47.4-1.05-.53-2.08-.79-3.21-1.01-.38-.07-.52-.54-.2-.67Z"/>
          <path class="cls-1" d="M315.18,270.45c-1.24-1.31-2.87-1.35-4.06-.46-.28.21-.11.58.26.56,1.18-.05,2.22.15,3.34.42.37.09.69-.27.46-.52Z"/>
          <path class="cls-1" d="M310.42,290.23c-.33,0-.61-.26-.63-.59-.02-.35.25-.65.59-.67,1.31-.08,2.6-.25,3.84-.53,9.95-2.2,9.78-7.4,9.68-10.85-.13-4.34-.82-8.09-2.05-11.15-2.11-5.25-5.67-8.08-10.6-8.42-9.76-.66-13.4,5.55-15.82,9.66-.49.83-.91,1.55-1.33,2.11-.12.16-.25.33-.39.51-1.68,2.19-4.81,6.26-3.62,10.16.85,2.81,3.84,5.1,8.88,6.82,1.52.52,3.06.93,4.58,1.21.34.06.57.39.5.74-.06.34-.39.57-.74.5-1.58-.3-3.17-.72-4.75-1.26-5.45-1.86-8.71-4.43-9.68-7.65-1.37-4.52,2.14-9.1,3.83-11.3.14-.18.27-.35.38-.5.37-.5.78-1.19,1.25-1.99,2.41-4.11,6.45-10.99,16.99-10.28,5.45.37,9.38,3.47,11.68,9.21,1.28,3.2,2,7.09,2.14,11.58.15,4.69-.55,9.88-10.67,12.12-1.3.29-2.66.47-4.04.55-.01,0-.02,0-.04,0Z"/>
          <path class="cls-1" d="M301.13,277.04c-.07,0-.14-.02-.2-.07-.77-.61-1.16-1.23-1.45-2.3-.05-.17.05-.34.22-.39.17-.05.34.05.39.22.29,1.07.66,1.52,1.24,1.97.14.11.16.31.05.44-.06.08-.15.12-.25.12Z"/>
          <path class="cls-1" d="M300.94,277.64c-.81,0-1.69-.47-2.38-1.28-.11-.13-.1-.33.04-.44.13-.11.33-.1.44.04.61.72,1.4,1.12,2.06,1.05.17-.02.33.11.35.28.02.17-.11.33-.28.35-.08,0-.15.01-.23.01Z"/>
          <path class="cls-1" d="M313.49,278.23c-.16,0-.29-.11-.31-.27-.02-.17.1-.33.27-.35.66-.09,1.43-.66,1.86-1.39.09-.15.28-.2.43-.11.15.09.2.28.11.43-.53.9-1.46,1.58-2.32,1.7-.01,0-.03,0-.04,0Z"/>
          <path class="cls-1" d="M314.58,279.49c-.38,0-.76-.07-1.14-.24-.16-.07-.23-.26-.16-.42.07-.16.26-.23.42-.16.86.39,1.82.08,2.49-.24.16-.08.35-.01.42.14.08.16.01.35-.14.42-.51.25-1.18.49-1.89.49Z"/>
          <path class="cls-1" d="M307.12,287.57c-1.07,0-2.22-.33-3.41-.99-2.32.66-3.62.03-4.3-.62-.86-.83-1.19-2.15-.85-3.44.35-1.32.96-1.43,1.86-1.46.65-.01,1.63-.04,3.23-.88,3.58-1.88,5.67-.8,7.72,1.4.21.22.19.57-.03.78-.22.21-.57.19-.78-.03-1.84-1.98-3.4-2.75-6.39-1.17-1.83.96-3.01.99-3.72,1q-.65.01-.82.63c-.24.9-.02,1.83.54,2.37.7.67,1.9.78,3.44.29.15-.05.31-.03.44.05,1.93,1.13,4.68,1.81,6.87-1.38.15-.21.42-.3.66-.2,0,0,.72.29,1.36.43.3.07.49.36.42.66-.07.3-.36.49-.66.42-.41-.09-.83-.23-1.13-.33-1.24,1.64-2.76,2.47-4.47,2.47Z"/>
          <path class="cls-1" d="M306.42,291.74c-.61,0-1.2-.14-1.74-.43-.87-.47-1.42-1.13-1.64-1.97-.44-1.65.61-3.36.66-3.43.16-.26.5-.34.76-.18.26.16.34.5.18.76,0,.01-.84,1.38-.53,2.57.14.54.5.96,1.1,1.28.85.46,1.91.39,2.98-.19,1.52-.82,3.14-2.8,3.35-5.36.02-.3.29-.53.6-.5.3.02.53.29.5.6-.21,2.62-1.75,5.07-3.92,6.24-.77.42-1.55.63-2.29.63Z"/>
          <path class="cls-1" d="M320.88,262.72c-.14,0-.27-.04-.39-.14-.27-.22-.32-.61-.1-.89l2.27-2.88c.13-.17.35-.26.56-.24l1.1.12-2.18-4.3-4.7-.44.66,1.33c.11.21.08.47-.06.66l-1.82,2.42c-.21.28-.61.33-.88.12-.28-.21-.33-.6-.12-.88l1.59-2.11-.99-1.99c-.1-.2-.08-.45.05-.64.13-.19.35-.29.58-.27l6.18.58c.22.02.41.15.5.34l2.87,5.65c.1.21.09.45-.04.64-.13.19-.36.29-.59.27l-1.91-.2-2.05,2.6c-.12.16-.31.24-.5.24Z"/>
        </g>
      </g>
      <g>
        <path d="M25.9,234.12c-.69,0-1.79.22-2.54.51-1.59.62-2.64,1.74-2.64,2.83,0,.69.45,1.16,1.35,1.38.41.11,1.11.18,1.6.17h.15c.25,0,.34.09.34.29,0,.5-.09,1.18-.17,1.38-.06.12-.13.17-.29.17-.91,0-2.07-.24-2.85-.6-1.15-.51-1.79-1.4-1.79-2.5,0-.71.27-1.43.78-2.07.29-.34.51-.55,1.05-.93-2.73.82-4.09,1.35-5.01,1.95-.12.08-.19.11-.27.11-.17,0-.3-.13-.51-.51-.21-.35-.36-.77-.36-.99,0-.13.06-.18.42-.29.34-.1.58-.25,1.16-.66.69-.51,1.77-1.44,2.7-2.32.77-.74,1.2-1.19,2.1-2.24-.87.11-3.23.51-3.57.6-.21.06-.22.06-.27.06-.14,0-.2-.06-.25-.21-.12-.33-.23-.88-.3-1.51.21.01.32.01.45.01.67,0,2.13-.12,3.93-.34.67-.08,1.07-.17,1.33-.3.18-.09.21-.11.32-.11.18,0,.42.2.84.71.3.34.39.51.39.67s-.06.24-.25.38q-.27.17-1.53,1.33c-1.04.96-2.27,2.01-3.65,3.1,2.12-.63,3.22-.93,5.52-1.44.51-.11,1.01-.24,1.58-.42.08-.03.13-.04.18-.04.12,0,.18.06.25.19.17.35.36,1.08.36,1.35,0,.21-.06.3-.22.3h-.34Z"/>
        <path d="M33.4,231.91c.97-.25,1.62-.34,2.33-.34,2.13,0,3.36,1.26,3.36,3.42,0,1.88-.81,3.39-2.45,4.59-.87.64-2.19,1.29-2.62,1.29-.2,0-.24-.04-.56-.5-.22-.34-.45-.55-.82-.83,1.72-.58,2.44-.96,3.22-1.63.9-.79,1.35-1.75,1.35-2.89,0-1.22-.57-1.91-1.58-1.91-.81,0-1.86.31-3.22.97-.2.09-.3.17-.55.35-.06.03-.12.06-.18.06-.29,0-.77-.84-1.1-1.96.56-.04.84-.12,2.82-.62ZM34.41,228.25c.54.17,1.35.32,2.08.41.3.03.41.04,1.17.08.22,0,.29.06.29.22,0,.5-.11,1.31-.2,1.46-.03.09-.1.12-.21.12-.34,0-1.56-.17-2.26-.31-1.19-.24-2.22-.54-2.43-.71-.05-.04-.08-.11-.08-.17,0-.12.31-.93.46-1.21.08-.12.12-.15.21-.15q.08,0,.96.27Z"/>
        <path d="M50.88,239.55c0,.66-.52,1.18-1.18,1.18s-1.19-.52-1.19-1.18.53-1.18,1.19-1.18,1.18.52,1.18,1.18ZM50.36,237.33h-1.33l-.41-8.98h2.16l-.42,8.98Z"/>
        <path d="M67.45,233.44c-.41-.04-.87-.06-1.41-.06h-3.87c-.55,0-.94.02-1.33.06v-1.17c-.9.58-1.59.97-2.73,1.48-.25-.63-.46-1-.84-1.45,1.51-.62,2.68-1.29,3.7-2.13,1.11-.91,1.82-1.68,2.19-2.38h1.79c.63.93,1.46,1.75,2.49,2.52,1.17.87,2.22,1.42,3.63,1.9-.42.56-.54.77-.85,1.59-1.14-.52-1.79-.87-2.76-1.51v1.16ZM69.69,235.72c-.13.15-.45.51-.63.74l-2.77,3.51c-.38.48-.62.83-.92,1.28l-1.65-.92c.38-.34.72-.72,1.09-1.19l2.37-2.91h-6.48c-.57,0-1.16.03-1.79.09v-1.63c.57.06,1.16.09,1.8.09h6.57c.83,0,1.2-.02,1.48-.08l.92,1.02ZM66.15,232c.36,0,.54,0,.84-.01-1.29-.93-1.98-1.58-2.9-2.76-.9,1.16-1.57,1.81-2.83,2.76.32.01.48.01.84.01h4.05Z"/>
        <path d="M83.13,241.08v-.78h-8.97v.78h-1.68c.06-.46.09-1.07.09-1.86v-9.1c0-.71-.03-1.16-.09-1.74.52.06.99.08,1.69.08h8.92c.71,0,1.17-.01,1.7-.08-.06.53-.08,1-.08,1.74v9.12c0,.78.03,1.48.08,1.84h-1.67ZM74.16,238.87h8.97v-8.98h-8.97v8.98ZM80.16,231.53c.63,0,1-.02,1.38-.04-.03.34-.04.69-.04,1.14v3.43c0,.48.01.78.04,1.14-.44-.03-.78-.04-1.38-.04h-3.08c-.72,0-.95.01-1.39.04.04-.39.06-.71.06-1.14v-3.43c0-.42-.01-.75-.06-1.14.38.03.76.04,1.39.04h3.08ZM77.26,235.8h2.71v-2.92h-2.71v2.92Z"/>
        <path d="M90.51,237c.04.06.06.11.06.17q0,.09-.25.78c-.32.92-.51,1.67-.57,2.25-.01.19-.08.27-.27.31-.21.06-.61.09-1,.09-.15,0-.22-.03-.27-.12-.13-.28-.38-1.32-.5-2.16-.1-.71-.15-1.44-.15-2.21,0-1.73.2-3.36.74-6.3.09-.48.12-.71.17-1.17.69.09,1.17.22,1.6.43.23.12.32.23.32.36,0,.09-.03.17-.11.29-.61,1.05-1.18,4.29-1.18,6.69,0,.36.01.93.06,1.65.36-.93.52-1.35.85-2.07.11.41.21.6.51,1ZM93.03,233.05c-.72,0-.87-.03-.92-.19-.04-.13-.09-.62-.09-.96,0-.12,0-.24.01-.51.41.03.64.04,1.14.04.81,0,1.32-.02,2.1-.08-.02-1.91-.03-2.15-.18-2.85.74.01,1.29.07,1.77.19.22.06.31.13.31.29,0,.06-.01.11-.06.22-.15.35-.23.93-.25,1.98.55-.08,1.03-.18,1.93-.39.08-.03.1-.03.15-.03.09,0,.13.04.17.15.03.14.07.71.07,1.02,0,.38-.01.43-.17.5-.24.12-.9.22-2.17.39,0,1.04.09,2.75.2,3.72.95.41,1.59.75,2.25,1.21.42.3.51.41.51.51,0,.16-.27.67-.58,1.11-.18.25-.27.33-.38.33s-.1,0-.45-.33c-.33-.33-.67-.58-1.33-1.02v.12c0,1.32-1.09,2.19-2.76,2.19s-2.8-.9-2.8-2.25,1.14-2.35,2.66-2.35c.55,0,.84.01,1.24.08q-.06-1.17-.1-3.18c-.65.04-1.67.09-2.26.09ZM94.26,237.46c-.75,0-1.25.34-1.25.87,0,.48.46.78,1.19.78.79,0,1.21-.36,1.21-1.05,0-.21-.02-.38-.02-.38-.39-.15-.73-.23-1.14-.23Z"/>
        <path d="M101.32,237.25c.27-.24.34-.3.45-.3.19,0,1.09.66,1.75,1.29.75.69,1.59,1.69,1.59,1.9,0,.14-.03.17-.46.56-.57.52-.69.61-.79.61-.09,0-.18-.06-.25-.21-.53-.93-1.73-2.16-2.79-2.85-.12-.09-.18-.15-.18-.24,0-.1.03-.15.69-.76Z"/>
        <path d="M116.64,234.44v-7.04h4.79v1.63h-3v5.4h-1.79Z"/>
        <path d="M125.82,232.87c-1.19.12-1.49.13-2.16.13-.46,0-.54-.19-.65-1.53h.58c.74,0,1.4-.04,2.22-.13v-.32c0-.97-.06-1.74-.21-2.55,1.14.06,1.59.12,1.9.21.15.04.21.12.21.27,0,.09-.01.15-.09.3-.13.28-.21.82-.22,1.84.5-.09,1.29-.29,1.89-.46.04-.02.08-.02.1-.02.12,0,.2.06.23.17.08.3.17.9.17,1.12,0,.12-.08.23-.2.27-.18.07-1.27.3-2.23.46v1.93c1.48-.5,2.64-.73,3.63-.73,1.92,0,3.16,1.23,3.16,3.13,0,1.23-.49,2.22-1.38,2.74-.46.27-1.12.44-1.84.44s-1.37-.06-1.53-.17c-.16-.09-.18-.13-.21-.5-.03-.42-.12-.78-.3-1.21.62.22,1.12.31,1.71.31,1.17,0,1.83-.6,1.83-1.66s-.63-1.67-1.63-1.67c-.95,0-2.15.3-3.43.85q0,.06.01.65.01.99.01,1.2c.02.27.02.54.02.68,0,1.21-.46,1.8-1.46,1.8s-1.94-.51-2.54-1.29c-.24-.33-.36-.67-.36-1.08,0-.97.87-1.86,2.76-2.83v-2.37ZM125.82,236.89c-.87.53-1.23.87-1.23,1.19,0,.34.5.72.95.72.21,0,.29-.13.29-.48v-1.43ZM134.19,233.49c-.76-.81-1.81-1.49-2.8-1.8-.12-.04-.18-.11-.18-.18,0-.09.15-.33.57-.9.17-.22.18-.24.33-.24.15.02.72.21,1.11.39.94.44,2.17,1.37,2.17,1.65,0,.27-.75,1.21-.98,1.21-.07,0-.13-.03-.22-.13Z"/>
        <path d="M143.95,238.15c1.23,0,2.59-.18,3.94-.53.08-.03.12-.03.17-.03.09,0,.13.06.17.2.04.33.08.81.08,1.3,0,.3-.03.39-.17.45-.45.24-2.47.46-4.21.46-2.26,0-3.55-.38-4.59-1.35-.5-.46-.99-1.28-.99-1.61,0-.22.13-.31,1.37-1.02.54,1.49,1.79,2.12,4.25,2.12ZM144.09,229.53c.87,0,1.38-.03,2.4-.18h.11c.12,0,.17.04.2.13.03.18.06.63.06,1.17,0,.34-.03.46-.12.53-.12.07-1.42.17-2.43.17-1.33,0-2.45-.11-3.69-.35-.85-.17-.9-.21-.9-.73,0-.35.03-.92.08-1.33,1.3.4,2.73.6,4.3.6Z"/>
        <path d="M154.2,231.19c2.52-.71,3.78-.93,5.19-.93,1.51,0,2.7.4,3.5,1.18.66.67,1.02,1.6,1.02,2.7,0,1.92-1.04,3.55-2.83,4.47-.96.5-1.93.83-3.27,1.08-.58.12-.88.17-1.11.17-.18,0-.27-.06-.36-.23-.35-.71-.48-.9-.93-1.38,2.24-.27,3.45-.57,4.62-1.15,1.28-.63,1.98-1.67,1.98-2.93,0-1.41-.96-2.32-2.43-2.32-1.78,0-3.76.51-6.04,1.57-.4.18-.61.29-.76.38-.27.15-.34.18-.43.18-.29,0-.79-.92-1.14-2.08.69-.09,1.38-.24,3.02-.71ZM163.15,230.49c-.15.12-.22.17-.3.17q-.09,0-.39-.41c-.29-.39-.58-.72-1.07-1.14-.04-.04-.08-.11-.08-.15,0-.13.6-.63.78-.63.11,0,.53.35,1,.84.42.44.55.62.55.72,0,.12-.15.3-.51.6ZM164.1,229.33c-.33-.48-.75-.94-1.2-1.33-.06-.04-.08-.07-.08-.13,0-.13.57-.58.74-.58.13,0,.43.23.83.62.5.51.71.78.71.88s-.03.15-.21.32c-.24.21-.51.4-.58.4-.05,0-.12-.04-.2-.17Z"/>
        <path d="M167.38,233.38c-.12.03-.18.06-.27.11-.08.04-.12.06-.2.06-.32,0-.55-.58-.74-1.69.12.01.23.01.29.01.63,0,2.24-.2,3.2-.39.31-1.32.48-2.31.48-3.03,0-.06,0-.13-.01-.25.64.08,1.26.21,1.68.38.24.09.36.22.36.38,0,.08-.02.12-.09.24q-.23.4-.69,2.05c.36-.04.76-.08,1.02-.08.62,0,1.1.12,1.44.36.6.43.9,1.32.9,2.68,0,2.24-.41,4.14-1.1,5.08-.48.66-1.11.97-1.99.97-.54,0-1.05-.07-1.2-.17q-.12-.07-.17-.63c-.04-.4-.13-.75-.32-1.17.78.25.98.3,1.46.3.72,0,1.02-.34,1.35-1.54.23-.79.35-1.83.35-2.92,0-1.17-.29-1.59-1.08-1.59-.27,0-.71.03-1.05.09-.04.17-.06.18-.12.39-.42,1.53-1.19,3.55-1.95,5.17-.79,1.63-.99,1.96-1.18,1.96-.12,0-.53-.21-.96-.5-.35-.21-.44-.3-.44-.42q0-.08.62-1.05c.83-1.28,1.91-3.78,2.28-5.25-1.11.24-1.73.39-1.86.43ZM175.03,231.7c0-.1.14-.24.57-.58.3-.22.45-.31.55-.31.09,0,.17.04.36.24.88.86,1.71,2,2.19,2.99.15.33.24.54.24.63,0,.15-.04.2-.52.58-.3.24-.65.43-.77.43-.1,0-.15-.04-.25-.3-.3-.73-.58-1.3-.94-1.86-.39-.6-.47-.69-1.35-1.64-.06-.09-.08-.13-.08-.18Z"/>
        <path d="M181.2,230.99c0-.44-.02-1.02-.04-1.35.69.07,1.2.18,1.6.33.36.14.48.23.48.39q0,.09-.06.24c-.2.51-.25,1.08-.25,2.44,0,1.92.12,3.12.42,4.04.22.71.57,1.11.97,1.11.62,0,1.12-.72,1.68-2.38.28.77.39.99.81,1.53.08.1.12.21.12.31,0,.24-.22.75-.53,1.19-.58.85-1.33,1.32-2.13,1.32-1.15,0-2.02-.93-2.56-2.77-.34-1.2-.51-2.71-.51-4.81v-1.58ZM190.12,231.23c.09,0,.17.04.29.15.75.72,1.53,1.92,2.03,3.09.33.79.64,1.86.64,2.17,0,.15-.08.23-.39.39-.34.18-1.05.42-1.23.42-.13,0-.19-.08-.24-.34-.2-1.16-.46-2-.93-2.97-.42-.87-.45-.92-1.47-2.17.63-.46,1.12-.73,1.3-.73Z"/>
        <path d="M199.11,234.42v7.02h-4.78v-1.63h3.01v-5.38h1.77Z"/>
        <path d="M215.56,236.43c-1.48.87-1.91,1.31-1.91,1.96,0,.27.11.45.33.58.33.2,1.07.3,2.01.3.81,0,1.93-.08,2.7-.18.32-.04.5-.09,1.09-.24h.08c.11,0,.18.07.23.18.09.31.15.76.15,1.3,0,.23-.08.32-.27.36-.36.08-2.03.17-3.12.17-1.83,0-2.8-.12-3.52-.42-.87-.36-1.31-1.04-1.31-1.98,0-.87.41-1.63,1.21-2.28.65-.51.79-.62,2.18-1.4-.12-.5-.35-.71-.81-.71-.62,0-1.26.24-1.96.71-.43.3-.95.72-1.26,1.04-.45.46-.5.5-.62.5-.15,0-.46-.34-.78-.87-.15-.25-.24-.45-.24-.55,0-.14.03-.17.39-.39,1.23-.82,2.25-1.88,2.87-2.95-1.07.07-1.62.09-2.21.09-.23,0-.27-.04-.34-.3-.05-.2-.12-.99-.14-1.4.51.08.81.09,1.53.09.58,0,1.23-.01,1.91-.04.31-.85.42-1.39.43-2.1,1.33.22,1.95.45,1.95.71,0,.06-.02.09-.06.18-.1.2-.22.43-.42.9q-.03.06-.04.1c.86-.12,1.61-.27,2.13-.39.33-.09.41-.11.48-.11.12,0,.18.04.21.14.06.27.15.96.15,1.17,0,.16-.06.24-.25.28-.48.14-2.13.39-3.51.53-.45.83-.76,1.3-1.23,1.81.67-.31,1.18-.43,1.78-.43.68,0,1.12.39,1.43,1.23,1.48-.81,2.28-1.24,2.37-1.3.69-.4.98-.63,1.31-1,.61.63,1.27,1.58,1.27,1.83,0,.09-.06.15-.25.2-.74.19-2.1.78-4.38,1.89.01.27.04.96.04,1.44v.72c0,.18-.03.27-.1.31-.08.08-.48.12-.93.12-.51,0-.6-.04-.6-.29v-.06c.03-.44.04-1,.04-1.37v-.08Z"/>
        <path d="M226.1,239.24c0,.78.01,1.21.08,1.74h-1.61c.06-.54.09-.99.09-1.72v-3.85c0-.71,0-.93.03-1.71-.38.7-.54.96-.94,1.45-.18-.7-.39-1.27-.63-1.68,1.23-1.39,2.22-3.6,2.6-5.73l1.48.54c-.06.18-.19.58-.22.73-.21.78-.44,1.37-.87,2.36v7.88ZM231.94,231.99c-.03.2-.03.25-.08.57-.45,3.88-1.69,6.31-4.38,8.5-.38-.52-.63-.81-1.09-1.21,1.38-.97,2.26-1.98,2.97-3.34-.39-.46-.63-.71-1.41-1.44-.27.45-.49.76-.91,1.27-.27-.58-.51-.97-.86-1.41,1.18-1.36,1.83-2.89,2.12-5.02-.5,0-.66.01-1.02.06v-1.51c.39.06.74.08,1.37.08h2.08c.66,0,1.05-.01,1.41-.08v1.5c-.33-.03-.62-.04-1.12-.04h-1.3c-.11.75-.14.96-.26,1.5h.92c.53,0,.81-.01,1.07-.04l.51.63ZM229.05,232.75c-.12.38-.25.69-.42,1.05.76.71.9.84,1.35,1.31.27-.81.38-1.31.51-2.36h-1.44ZM236.36,239.37c0,1.21-.41,1.48-2.24,1.48-.39,0-.69,0-1.27-.01-.09-.63-.17-.95-.41-1.5.58.08,1.32.12,1.67.12.73,0,.83-.04.83-.38v-9.6c0-.66-.02-1-.08-1.49h1.58c-.06.39-.08.81-.08,1.49v9.88ZM232.45,237.54c.04-.36.06-.71.06-1.23v-6.27c0-.51-.02-.83-.06-1.21h1.54c-.04.34-.06.65-.06,1.21v6.27c0,.58.01.9.06,1.23h-1.54Z"/>
        <path d="M18.3,262.96c.04.08.06.13.06.21,0,.11-.02.12-.15.45-.3.69-.66,1.77-.84,2.58-.04.17-.09.25-.15.29-.08.03-.59.1-.75.1h-.06c-.08,0-.18-.01-.3-.01-.2,0-.24-.04-.3-.23-.29-.97-.51-2.98-.51-4.5,0-1.65.1-2.67.52-4.92.15-.81.22-1.26.29-1.75.63.12,1.17.27,1.62.48.25.11.33.18.33.33,0,.11-.02.15-.18.39-.5.79-1.05,3.98-1.05,6.12,0,.34.02.81.06,1.56.42-.94.57-1.23.92-1.96.13.32.22.46.49.87ZM21.55,264.03c.48.25,1.05.34,2.06.34s1.53-.08,2.46-.34c.09-.03.16-.04.21-.04.1,0,.18.06.19.21.08.51.13,1.11.13,1.41,0,.15-.04.2-.25.26-.81.21-1.63.31-2.64.31-1.38,0-2.23-.17-2.94-.58-.66-.41-1.35-1.23-1.35-1.63,0-.21.32-.5,1.12-.99.27.54.53.81,1,1.07ZM20.5,256.38c.33.08,1.29.14,2.03.14.99,0,1.98-.08,2.91-.24q.08-.01.14-.01c.1,0,.15.04.18.16.03.15.08.81.08,1.22,0,.22-.04.3-.21.33-.62.12-1.63.2-2.71.2-1.29,0-2.45-.08-2.59-.17-.08-.04-.11-.15-.11-.42,0-.41.04-1,.08-1.12.01-.06.06-.09.15-.09.02,0,.04,0,.08.01Z"/>
        <path d="M34.33,255.56c0-.69-.03-1.05-.09-1.44h1.81c-.07.42-.09.76-.09,1.44v3.13h3.06v-2.34c0-.46-.02-.77-.06-1.12h1.74c-.06.42-.08.72-.08,1.25v2.85c0,.38.01.66.04.92-.3-.03-.66-.04-1.02-.04h-3.69v4.74h3.54v-2.37c0-.51-.03-.9-.08-1.24h1.75c-.06.36-.07.81-.07,1.38v3.09c0,.67.01,1.05.07,1.46h-1.68v-.75h-8.55v.75h-1.69c.06-.44.09-.86.09-1.46v-3.03c0-.58-.03-.97-.08-1.38h1.74c-.04.36-.06.65-.06,1.23v2.32h3.38v-4.74h-3.45c-.39,0-.72.01-1.03.04.03-.38.04-.58.04-.92v-2.83c0-.53-.03-.9-.08-1.26h1.74c-.04.33-.06.66-.06,1.14v2.33h2.83v-3.13Z"/>
        <path d="M48.06,254.73c.38.1.48.18.48.34,0,.11-.01.15-.09.36-.17.43-.29,1.2-.34,2.25-.12,2.42-.18,4.29-.18,5.77,0,.48.04.84.12,1.08.17.5.69.75,1.53.75,1.35,0,2.62-.55,3.79-1.65.54-.51.87-.92,1.42-1.74.09.48.21.79.54,1.47.04.12.08.21.08.34,0,.27-.29.63-1.04,1.3-1.49,1.33-3.13,2.03-4.86,2.03-1.14,0-1.98-.29-2.52-.83-.57-.6-.79-1.38-.79-2.86,0-1.17.01-2.07.13-5.57.02-.52.03-.84.03-.97,0-1.28-.01-1.65-.11-2.29.77.03,1.35.09,1.8.21Z"/>
        <path d="M60.19,258.18c-.39.09-.53.13-1.07.33-.19.08-.3.11-.39.11-.33,0-.63-.62-.9-1.91.96-.04,1.31-.09,2.97-.34,1.8-.27,4.08-.62,5.28-.76,1.35-.18,2.43-.36,3-.48.1-.03.15-.03.22-.03.2,0,.27.09.41.47.12.31.21.76.21.97,0,.18-.06.24-.27.24-.32,0-.6.03-.89.08-2.53.42-4.56,2.64-4.56,4.98,0,1.75,1.38,2.91,3.72,3.12.21.01.29.09.29.27,0,.38-.15,1.09-.29,1.42-.08.17-.19.24-.39.24s-.65-.09-1.11-.22c-2.55-.75-3.88-2.37-3.88-4.67,0-1.25.41-2.4,1.19-3.39.42-.54.78-.84,1.63-1.43-1.96.33-4.04.72-5.17,1.01Z"/>
        <path d="M72.4,263.5c.27-.24.34-.3.45-.3.19,0,1.09.66,1.75,1.29.75.69,1.59,1.69,1.59,1.9,0,.14-.03.17-.46.56-.57.52-.69.61-.79.61-.09,0-.18-.06-.25-.21-.53-.93-1.73-2.16-2.79-2.85-.12-.09-.18-.15-.18-.24,0-.1.03-.15.69-.76Z"/>
        <path d="M89.94,259.12c-1.19.12-1.49.13-2.16.13-.46,0-.54-.19-.65-1.53h.58c.74,0,1.4-.04,2.22-.13v-.32c0-.97-.06-1.74-.21-2.55,1.14.06,1.59.12,1.9.21.15.04.21.12.21.27,0,.09-.01.15-.09.3-.13.28-.21.82-.22,1.84.5-.09,1.29-.29,1.89-.46.04-.02.08-.02.1-.02.12,0,.2.06.23.17.08.3.17.9.17,1.12,0,.12-.08.23-.2.27-.18.07-1.27.3-2.23.46v1.93c1.48-.5,2.64-.73,3.63-.73,1.92,0,3.16,1.23,3.16,3.13,0,1.23-.49,2.22-1.38,2.74-.46.27-1.12.44-1.84.44s-1.37-.06-1.53-.17c-.16-.09-.18-.13-.21-.5-.03-.42-.12-.78-.3-1.21.62.22,1.12.31,1.71.31,1.17,0,1.83-.6,1.83-1.66s-.63-1.67-1.63-1.67c-.95,0-2.14.3-3.43.85q0,.06.01.65.01.99.01,1.2c.02.27.02.54.02.68,0,1.21-.46,1.8-1.46,1.8s-1.94-.51-2.54-1.29c-.24-.33-.36-.67-.36-1.08,0-.97.87-1.86,2.76-2.83v-2.37ZM89.94,263.14c-.87.53-1.23.87-1.23,1.19,0,.34.5.72.95.72.21,0,.29-.13.29-.48v-1.43ZM98.31,259.74c-.76-.81-1.81-1.49-2.8-1.8-.12-.04-.18-.11-.18-.18,0-.09.15-.33.57-.9.17-.22.18-.24.33-.24.15.02.72.21,1.11.39.94.44,2.17,1.37,2.17,1.65,0,.27-.75,1.21-.97,1.21-.08,0-.14-.03-.23-.13Z"/>
        <path d="M105.3,259.35c-.55,0-1,.01-1.41.06v-.69c-.76.48-1.39.8-2.34,1.2-.34-.76-.46-.96-.84-1.5,2.7-.94,4.84-2.49,5.89-4.21h1.77c.58.84,1.2,1.47,2.22,2.24,1.18.87,2.26,1.41,3.83,1.92-.36.55-.57.99-.78,1.6-1.17-.5-1.63-.73-2.54-1.29v.74c-.38-.04-.79-.06-1.41-.06h-1.45v1.39h3.64c.76,0,1.17-.01,1.56-.08v1.59c-.39-.06-.9-.09-1.57-.09h-3.63v3.22h3.91c.74,0,1.21-.03,1.7-.09v1.65c-.54-.06-1.12-.09-1.74-.09h-9.09c-.66,0-1.23.03-1.8.09v-1.65c.53.06,1.04.09,1.79.09h3.63v-3.22h-3.4c-.62,0-1.14.03-1.58.09v-1.59c.42.06.84.08,1.58.08h3.4v-1.39h-1.33ZM104.28,262.29c.5.87.75,1.39,1.15,2.4l-1.44.57c-.3-.9-.67-1.67-1.14-2.38l1.42-.58ZM105.27,258h4.82c-1.08-.76-1.84-1.47-2.58-2.42-.74.96-1.38,1.58-2.54,2.42h.3ZM112.14,262.89q-.18.33-.71,1.38c-.06.11-.1.2-.6,1.02l-1.35-.51c.44-.71.79-1.47,1.14-2.48l1.51.58Z"/>
        <path d="M121.24,263.68c-.72,1.25-1.71,1.94-2.73,1.94-1.56,0-2.67-1.53-2.67-3.66,0-2.37,1.2-4.41,3.25-5.49,1-.54,2.08-.78,3.51-.78,3.14,0,5.46,2.22,5.46,5.19,0,2.62-1.29,4.51-3.78,5.58-.5.21-.89.33-1.08.33-.18,0-.25-.06-.45-.34-.25-.39-.54-.68-.95-.95,3.09-.79,4.49-2.25,4.49-4.68,0-1.25-.53-2.29-1.46-2.96-.53-.36-.95-.51-1.77-.64-.42,3.16-.92,4.89-1.83,6.46ZM119.08,258.37c-1,.88-1.58,2.15-1.58,3.55,0,1.16.38,1.83,1,1.83.75,0,1.52-1.04,2.08-2.82.36-1.12.54-1.98.77-3.65-1.07.23-1.59.48-2.28,1.08Z"/>
        <path d="M131.14,261.45c0-.44.02-.93.05-1.61-.32.56-.54.92-1.02,1.52-.18-.69-.34-1.12-.64-1.71,1.32-1.46,2.43-3.83,2.68-5.73l1.65.39c-.53,1.65-.68,2.05-1.19,3.19v8.19c0,.63.01,1.08.08,1.66h-1.7c.08-.55.09-.96.09-1.68v-4.23ZM138.63,262.17c-.17.9-.38,1.5-.81,2.21,1.54.83,3,1.17,5.42,1.26-.27.51-.48,1.07-.63,1.61-2.42-.26-4.08-.78-5.67-1.79-.81.78-1.74,1.32-3.19,1.84-.27-.53-.57-.97-.89-1.35,1.32-.38,2.16-.77,2.91-1.4-.36-.33-.57-.57-.9-.99-.2-.26-.3-.39-.45-.53l1.26-.67c.18.36.46.72.95,1.15.27-.46.4-.82.51-1.35h-2.1c-.48,0-.83.01-1.17.06.03-.42.04-.71.04-1.2v-2.01c0-.6-.02-.87-.04-1.21.4.03.66.04,1.32.04h2.24c0-.08,0-.42-.02-1.04h-2.37c-.58,0-.95.01-1.38.06v-1.54c.42.06.99.09,1.55.09h2.2c-.01-.75-.03-.99-.09-1.45h1.65q-.04.42-.04,1.45h2.5c.66,0,1.11-.03,1.63-.09v1.54c-.44-.04-.86-.06-1.44-.06h-2.7v1.04h2.13c.61,0,.94-.02,1.35-.04-.03.36-.04.73-.04,1.26v1.86c0,.67.01.95.04,1.31-.42-.05-.74-.06-1.41-.06h-2.35ZM135.4,259.23v1.57h1.9c.04-.58.06-.72.09-1.57h-1.99ZM138.88,259.23c-.01.52-.04,1.05-.09,1.57h2.04v-1.57h-1.95Z"/>
        <path d="M145.32,257.24c0-.44-.02-1.02-.04-1.35.69.07,1.2.18,1.6.33.36.14.48.23.48.39q0,.09-.06.24c-.2.51-.25,1.08-.25,2.44,0,1.92.12,3.12.42,4.04.22.71.57,1.11.97,1.11.62,0,1.12-.72,1.68-2.38.28.77.39.99.81,1.53.08.1.12.21.12.31,0,.24-.22.75-.53,1.19-.58.85-1.33,1.32-2.13,1.32-1.15,0-2.02-.93-2.56-2.77-.34-1.2-.51-2.71-.51-4.81v-1.58ZM154.24,257.48c.09,0,.17.04.29.15.75.72,1.53,1.92,2.03,3.09.33.79.64,1.86.64,2.17,0,.15-.08.23-.39.39-.34.18-1.05.42-1.23.42-.13,0-.19-.08-.24-.34-.2-1.16-.46-2-.93-2.97-.42-.87-.45-.92-1.47-2.17.63-.46,1.12-.73,1.3-.73Z"/>
        <path d="M158.89,259.54c.36.06.58.08,1.14.08h1.06c.44,0,.77-.01,1.1-.06-.06.46-.06.76-.06,1.56v2.97c.32.51.57.75,1,.95.75.33,1.74.45,3.72.45,2.08,0,3.81-.09,5.38-.3-.27.6-.36.93-.46,1.68-2.64.07-3.85.1-4.96.1-2.05,0-3.17-.12-3.94-.45-.63-.27-.96-.52-1.52-1.17-.43.46-.99.95-1.65,1.4-.17.12-.23.18-.41.33l-.72-1.62c.54-.2,1.17-.63,2.07-1.41v-3.01h-.79c-.4,0-.58.01-.96.08v-1.56ZM159.97,254.29c1.1.96,1.77,1.67,2.48,2.6l-1.19,1.12c-.85-1.17-1.44-1.82-2.43-2.67l1.14-1.05ZM164.92,255.6c-.2-.39-.46-.78-.78-1.19l1.4-.43c.4.54.63.92.97,1.62h1.28c.34-.48.63-1.02.88-1.62l1.54.38c-.24.43-.56.92-.79,1.25h.92c.67,0,1.02-.02,1.42-.09v1.44c-.48-.04-.88-.06-1.42-.06h-2.43c-.21.43-.24.51-.36.73h2.07c.65,0,1.04-.01,1.29-.04-.03.38-.04.76-.04,1.37v4.26c0,.57.02.96.06,1.39-.39-.01-.77-.03-1.1-.03h-5.01c-.43,0-.81.01-1.33.03.02-.36.04-.87.04-1.36v-4.31c0-.46-.03-1.02-.07-1.35.33.03.76.04,1.41.04h1.07c.2-.34.22-.42.36-.73h-2.12c-.67,0-1.08.01-1.46.04v-1.42c.34.06.76.09,1.49.09h.72ZM164.95,263.34h4.42v-.78h-4.42v.78ZM164.97,259.62h4.44v-.76h-4.44v.76ZM164.97,261.48h4.44v-.78h-4.44v.78Z"/>
        <path d="M177.36,262.96c.04.08.06.13.06.21,0,.11-.02.12-.15.45-.3.69-.66,1.77-.84,2.58-.04.17-.09.25-.15.29-.08.03-.58.1-.75.1h-.06c-.08,0-.18-.01-.3-.01-.2,0-.24-.04-.3-.23-.29-.97-.51-2.98-.51-4.5,0-1.65.1-2.67.52-4.92.15-.81.22-1.26.29-1.75.63.12,1.17.27,1.62.48.25.11.33.18.33.33,0,.11-.02.15-.18.39-.5.79-1.05,3.98-1.05,6.12,0,.34.02.81.06,1.56.42-.94.57-1.23.92-1.96.13.32.22.46.49.87ZM180.61,264.03c.48.25,1.05.34,2.06.34s1.53-.08,2.46-.34c.09-.03.17-.04.21-.04.1,0,.18.06.19.21.08.51.13,1.11.13,1.41,0,.15-.04.2-.25.26-.81.21-1.63.31-2.64.31-1.38,0-2.23-.17-2.94-.58-.66-.41-1.35-1.23-1.35-1.63,0-.21.32-.5,1.12-.99.27.54.53.81,1,1.07ZM179.56,256.38c.33.08,1.29.14,2.03.14.99,0,1.98-.08,2.91-.24q.08-.01.14-.01c.1,0,.15.04.18.16.03.15.08.81.08,1.22,0,.22-.04.3-.21.33-.62.12-1.63.2-2.71.2-1.29,0-2.45-.08-2.59-.17-.08-.04-.11-.15-.11-.42,0-.41.04-1,.08-1.12.01-.06.06-.09.15-.09.02,0,.05,0,.08.01Z"/>
        <path d="M190.71,257.36c2.49-.71,3.78-.93,5.19-.93,1.51,0,2.7.41,3.5,1.19.66.67,1.02,1.6,1.02,2.7,0,1.92-1.03,3.54-2.83,4.47-.96.48-1.93.81-3.27,1.06-.58.12-.88.17-1.11.17-.18,0-.27-.06-.36-.22-.34-.69-.48-.9-.93-1.37,2.23-.27,3.45-.57,4.62-1.16,1.28-.63,1.98-1.67,1.98-2.92,0-1.41-.96-2.32-2.43-2.32-1.78,0-3.76.51-6.04,1.56-.41.18-.62.29-.77.38-.27.15-.34.18-.43.18-.29,0-.79-.92-1.14-2.07.69-.09,1.38-.25,3.01-.71Z"/>
        <path d="M203.16,257.24c0-.44-.02-1.02-.04-1.35.69.07,1.2.18,1.6.33.36.14.48.23.48.39q0,.09-.06.24c-.2.51-.25,1.08-.25,2.44,0,1.92.12,3.12.42,4.04.22.71.57,1.11.97,1.11.62,0,1.12-.72,1.68-2.38.28.77.39.99.81,1.53.08.1.12.21.12.31,0,.24-.22.75-.53,1.19-.58.85-1.33,1.32-2.13,1.32-1.15,0-2.02-.93-2.56-2.77-.34-1.2-.51-2.71-.51-4.81v-1.58ZM212.08,257.48c.09,0,.17.04.29.15.75.72,1.53,1.92,2.03,3.09.33.79.64,1.86.64,2.17,0,.15-.08.23-.39.39-.34.18-1.05.42-1.23.42-.13,0-.19-.08-.24-.34-.2-1.16-.46-2-.93-2.97-.42-.87-.45-.92-1.47-2.17.63-.46,1.12-.73,1.3-.73Z"/>
        <path d="M219.26,258.18c-.39.09-.53.13-1.07.33-.19.08-.3.11-.39.11-.33,0-.63-.62-.9-1.91.96-.04,1.31-.09,2.97-.34,1.8-.27,4.08-.62,5.28-.76,1.35-.18,2.43-.36,3-.48.1-.03.15-.03.22-.03.2,0,.27.09.41.47.12.31.21.76.21.97,0,.18-.06.24-.27.24-.32,0-.6.03-.89.08-2.53.42-4.56,2.64-4.56,4.98,0,1.75,1.38,2.91,3.72,3.12.21.01.29.09.29.27,0,.38-.15,1.09-.29,1.42-.08.17-.19.24-.39.24s-.65-.09-1.11-.22c-2.55-.75-3.88-2.37-3.88-4.67,0-1.25.41-2.4,1.19-3.39.42-.54.78-.84,1.63-1.43-1.96.33-4.04.72-5.17,1.01Z"/>
        <path d="M18.36,285.06c-1.07-.21-1.88-.53-2.43-.92-.27-.18-.33-.25-.33-.39,0-.17.12-.46.54-1.3.73.46,1.56.79,2.5.99.21-1.05.3-1.92.31-2.9.77.14,1.44.36,1.82.57.17.09.22.18.21.3,0,.06-.03.12-.11.27-.22.46-.24.51-.55,1.98.15.02.34.02.46.02h.11c.36-.02.63-.02.76-.02h.04c.13,0,.18.06.18.25,0,.66-.04,1.2-.1,1.31-.04.07-.24.1-.87.1-.29,0-.51-.01-.93-.03q-.32,1.54-.45,2.36c.51.04.62.04.87.04h.84c.15-.01.22.01.27.09.06.09.11.57.11,1.11,0,.27-.02.34-.11.39-.07.03-.4.04-.97.04-.27,0-.67-.01-1.2-.04-.01.27-.01.45-.01.57,0,1.38.64,2.01,2.05,2.01,1.58,0,2.52-.77,2.52-2.05,0-.47-.1-.89-.34-1.35-.3-.57-.58-.9-1.3-1.47h.13c.24,0,.75-.08,1.2-.17.24-.04.33-.06.41-.06.22,0,.38.1.67.48.69.84,1.04,1.72,1.04,2.66,0,2.11-1.71,3.51-4.31,3.51-2.43,0-3.64-1.21-3.64-3.67,0-.21,0-.38.03-.63-1.49-.32-2.29-1.05-2.29-2.12,0-.55.17-.96.58-1.38.04-.06.1-.08.17-.08.09,0,.19.08.54.36.27.22.31.27.31.34q0,.06-.09.2c-.06.1-.12.27-.12.36,0,.2.12.36.35.46.21.11.27.12.75.23l.39-2.43Z"/>
        <path d="M32.27,285.86c1.89-.53,3.25-.77,4.27-.77,2.12,0,3.42,1.16,3.42,3.03,0,1.12-.46,2.12-1.35,2.87-.58.49-1.46.91-2.61,1.26-.64.18-1.33.31-1.63.31-.18,0-.27-.04-.33-.19-.21-.53-.45-.9-.76-1.21,3.3-.35,4.98-1.4,4.98-3.11,0-.87-.72-1.54-1.65-1.54-1.62,0-3.39.54-5.25,1.58-.15.08-.24.12-.3.12-.25,0-.67-.75-1.02-1.83.74-.11.99-.17,2.24-.51Z"/>
        <path d="M47.64,285.33c-.19-.66-.25-1.06-.43-2.91-.06-.72-.12-1.08-.27-1.59.91.02,1.5.06,1.9.17.23.06.33.17.33.33,0,.06-.01.13-.04.25-.1.36-.15.63-.15,1.02,0,.73.15,1.93.32,2.46.09.28.18.39.34.39.36,0,1.68-.69,2.4-1.25.19-.15.22-.17.3-.17.13,0,.27.11.5.39.38.51.67,1.06.67,1.27,0,.17-.11.27-.36.34-.93.25-2.46.86-3.49,1.35-1.83.9-2.66,1.72-2.66,2.65s.76,1.29,2.7,1.29c1.12,0,2.14-.1,3.52-.33.06-.01.17-.03.2-.03.12,0,.19.06.25.18.04.15.15,1.06.15,1.42,0,.21-.06.29-.26.34-.33.08-2.14.18-3.28.18-1.92,0-3.2-.26-3.99-.79-.67-.47-1.04-1.2-1.04-2.1,0-.69.2-1.3.6-1.9.52-.78,1.09-1.28,2.35-2.03-.31-.29-.43-.5-.57-.96Z"/>
        <path d="M57.61,282.7c.33.06.62.08,1.16.08h2.89c.58,0,.84-.01,1.16-.06v1.47c-.29-.03-.46-.04-1.1-.04h-2.95c-.53,0-.79.01-1.16.06v-1.5ZM58,293.62c.04-.42.08-.92.08-1.4v-2.13c0-.45-.01-.78-.06-1.14.36.03.67.04,1.09.04h2.47c.56,0,.69,0,.96-.04-.03.32-.03.5-.03,1.05v2.31c0,.42.01.75.06,1.11h-1.42v-.48h-1.65v.67h-1.5ZM58.08,280.69c.38.04.62.06,1.2.06h2.04c.58,0,.83-.01,1.2-.06v1.41c-.32-.03-.66-.04-1.2-.04h-2.04c-.53,0-.87.01-1.2.04v-1.41ZM58.12,284.92c.33.04.46.04.95.04h2.55c.51,0,.6,0,.93-.04v1.32c-.33-.04-.48-.04-.93-.04h-2.55c-.45,0-.62,0-.95.04v-1.32ZM58.12,286.94c.33.04.45.04.95.04h2.55c.5,0,.66,0,.93-.04v1.32c-.29-.03-.5-.04-.94-.04h-2.55c-.45,0-.63.01-.93.04v-1.32ZM59.46,291.69h1.7v-1.44h-1.7v1.44ZM67.03,283.1c.5-.86.92-1.8,1.26-2.81l1.54.56c-.67,1.36-.84,1.67-1.21,2.25h.63c.67,0,.93-.02,1.3-.08v1.54c-.38-.04-.71-.06-1.42-.06h-1.71v1.44h1.41c.66,0,1.05-.02,1.37-.06v1.47c-.32-.04-.72-.06-1.35-.06h-1.42v1.62h1.88c.58,0,1.04-.01,1.49-.08v1.59c-.44-.06-.86-.09-1.46-.09h-1.91v1.51c0,.69.03,1.19.09,1.73h-1.74c.06-.44.09-1.05.09-1.71v-1.53h-1.35c-.67,0-1.08.01-1.5.08v-1.58c.42.06.84.08,1.52.08h1.33v-1.62h-1.1c-.64,0-.97.02-1.32.06v-1.47c.38.04.72.06,1.3.06h1.11v-1.44h-1.37c-.69,0-.99.02-1.38.06v-1.54c.38.06.6.08,1.25.08h2.67ZM64.74,283.07c-.32-.86-.62-1.44-1.08-2.16l1.32-.62c.48.72.71,1.12,1.14,2.13l-1.38.65Z"/>
        <path d="M76.98,280.98c.38.1.48.18.48.34,0,.11-.01.15-.09.36-.17.43-.29,1.2-.34,2.25-.12,2.42-.18,4.29-.18,5.77,0,.48.04.84.12,1.08.17.5.69.75,1.53.75,1.35,0,2.62-.55,3.79-1.65.54-.51.87-.92,1.42-1.74.09.48.21.79.54,1.47.04.12.08.21.08.34,0,.27-.29.63-1.04,1.3-1.49,1.33-3.13,2.03-4.86,2.03-1.14,0-1.98-.29-2.52-.83-.57-.6-.79-1.38-.79-2.86,0-1.17.01-2.07.13-5.57.02-.52.03-.84.03-.97,0-1.28-.01-1.65-.11-2.29.77.03,1.35.09,1.8.21Z"/>
        <path d="M95.74,281.79c0,.14-.06.18-.32.33-.1.06-.24.18-.38.34-.93,1.08-2.26,2.54-3.45,3.74-.25.25-.36.45-.36.63,0,.17.12.34.41.6.88.81,2.32,2.28,3.39,3.5.75.84.94,1.11.94,1.26,0,.17-.25.42-.87.9-.29.22-.47.33-.56.33-.13,0-.19-.06-.34-.3-.64-1.02-2.22-2.92-3.42-4.14-.67-.67-.81-.82-1.02-1.12-.25-.36-.36-.66-.36-1,0-.3.09-.61.27-.92q.17-.27,1.08-1.24c.87-.9,1.8-2.04,2.38-2.88.39-.56.58-.92.78-1.43,1.17.65,1.82,1.14,1.82,1.41Z"/>
        <path d="M102.9,289.61c-.75,0-1.31.03-1.75.09v-1.59c.51.06,1.08.09,1.74.09h3.93v-.11c0-.29-.01-.52-.04-.78h.63c.62-.32,1.08-.65,1.7-1.17h-3.96c-.6,0-1.04.02-1.46.06v-1.42c.42.04.86.06,1.47.06h4.75c.56,0,.86-.01,1.1-.06l.79.87q-.21.18-.53.43c-1.02.87-1.75,1.42-2.86,2.1v.02h3.73c.69,0,1.35-.03,1.77-.09v1.59c-.4-.06-1.02-.09-1.78-.09h-3.72v2.52c0,.73-.15,1.05-.56,1.2-.36.13-.81.18-1.67.18-.18,0-.64-.01-1.42-.04-.15-.78-.22-1.02-.48-1.53.71.09,1.35.13,1.78.13.65,0,.75-.04.75-.33v-2.13h-3.91ZM103.65,282.49c-.35-.64-.53-.93-1.08-1.62l1.44-.43c.53.63.81,1.08,1.32,2.05h1.51c-.25-.73-.46-1.17-.87-1.81l1.5-.42c.58,1.09.67,1.3.99,2.23h1.21c.44-.55.93-1.48,1.18-2.16l1.56.44c-.33.6-.76,1.29-1.09,1.72h.66c.99,0,1.25-.01,1.77-.06-.04.38-.06.66-.06,1.2v1.33c0,.39.03.75.08,1.1h-1.58v-2.24h-9.37v2.24h-1.58c.06-.33.08-.66.08-1.11v-1.32c0-.51-.01-.85-.06-1.2.66.06.74.06,1.71.06h.68Z"/>
        <path d="M122.47,281.29c.18.12.25.21.25.32s-.01.12-.24.38c-.08.09-.3.42-.54.83q-.75,1.25-1.16,1.96c-.42.71-.69,1.18-.84,1.41q-.04.07-.25.45c-.2.35-.32.53-.53.81.97-.86,1.5-1.08,2.49-1.08.66,0,1.25.29,1.62.78.31.42.4.81.54,2.28.07.88.15,1.28.25,1.5.1.21.31.33.58.33,1.03,0,2.26-1.25,2.86-2.88.15.63.27.93.58,1.49.11.18.14.3.14.45,0,.17-.08.38-.26.66-.78,1.26-2.05,2.01-3.42,2.01-.85,0-1.57-.3-1.95-.79-.3-.42-.44-.97-.56-2.44-.07-.96-.15-1.29-.36-1.53-.17-.18-.41-.27-.74-.27-.99,0-2.29,1.33-3.06,3.1-.22.51-.38.97-.54,1.54-.06.22-.13.32-.24.32-.31,0-1.04-.3-1.42-.58-.1-.09-.15-.15-.15-.24,0-.08.03-.15.22-.57.12-.27.17-.34.27-.62q1.11-2.59,4.19-8.82c.34-.69.51-1.12.61-1.58.78.29,1.14.47,1.62.79Z"/>
        <path d="M132.49,284.43c-.39.09-.53.13-1.07.33-.19.08-.3.11-.39.11-.33,0-.63-.62-.9-1.91.96-.04,1.31-.09,2.97-.34,1.8-.27,4.08-.62,5.28-.76,1.35-.18,2.43-.36,3-.48.1-.03.15-.03.22-.03.2,0,.27.09.41.47.12.31.21.76.21.97,0,.18-.06.24-.27.24-.32,0-.6.03-.89.08-2.53.42-4.56,2.64-4.56,4.98,0,1.75,1.38,2.91,3.72,3.12.21.01.29.09.29.27,0,.38-.15,1.09-.29,1.42-.08.17-.19.24-.39.24s-.65-.09-1.11-.22c-2.55-.75-3.88-2.37-3.88-4.67,0-1.25.41-2.4,1.19-3.39.42-.54.78-.84,1.63-1.43-1.96.33-4.04.72-5.17,1.01ZM140.17,284.82c.21,0,1.48,1.42,1.48,1.65,0,.08-.09.17-.36.41-.29.24-.3.24-.42.29q-.08.03-.11.03c-.06,0-.08-.02-.34-.44-.24-.38-.5-.71-.97-1.2-.03-.03-.08-.1-.08-.12.03-.08.04-.12.06-.12.04-.06.3-.27.36-.32.15-.08.24-.13.25-.15.01-.03.04-.03.04-.03h.08ZM142.74,285.86c-.22.17-.36.25-.43.25-.06,0-.09-.03-.17-.15-.45-.67-.67-.96-1.16-1.42-.03-.04-.06-.09-.06-.12,0-.08.09-.17.3-.31.21-.15.39-.24.46-.24.11,0,.29.13.6.45.44.45.84,1,.84,1.14,0,.09-.11.2-.39.41Z"/>
        <path d="M150.16,287.69c-.54,1-1.16,1.99-1.71,2.8-.62.88-1.32,1.33-2.05,1.33-1.08,0-1.82-.89-1.82-2.21,0-1.14.57-2.12,1.63-2.75.71-.41,1.77-.69,2.62-.69h.15c.76-1.56.96-1.98,1.47-3.15-1.38.06-2.22.18-2.83.39-.03.02-.08.02-.11.02-.25,0-.49-.78-.57-1.91.33.06.64.09,1.05.09.51,0,1.38-.04,2.29-.13q.85-.08,1.05-.2c.12-.06.2-.09.27-.09.19,0,.49.24.82.65.24.31.39.57.39.67,0,.12-.06.22-.24.41-.22.24-.92,1.53-1.79,3.36,1.42.29,1.96.45,3,.9.08-.53.13-1.14.13-1.56,0-.19-.01-.42-.04-.67.65.09,1.19.2,1.62.3.27.08.36.15.36.27,0,.1-.03.21-.12.39-.13.29-.18.48-.29,1.09-.04.32-.09.53-.18.96.76.48,1.42.95,1.72,1.23.08.08.12.15.12.22,0,.42-.65,1.4-.92,1.4-.08,0-.15-.04-.27-.14-.4-.36-.9-.78-1.2-1-.51,1.08-1.04,1.77-1.86,2.48-.71.58-1.68,1.12-2.04,1.12-.12,0-.25-.06-.36-.15-.04-.04-.04-.06-.24-.33-.23-.34-.42-.51-.78-.67,1.2-.42,1.79-.72,2.43-1.28.65-.57,1.14-1.26,1.47-2.07-1.02-.56-2.03-.9-3.21-1.09ZM146.11,289.49c0,.36.13.58.38.58.33,0,.92-.74,1.86-2.36-1.42.15-2.23.79-2.23,1.77Z"/>
        <path d="M164.61,285.9q-.03-.74-.04-1.67c-.13.01-.27.01-.33.01-.99,0-2.26-.1-2.79-.24-.15-.04-.18-.07-.18-.22,0-.33.04-.74.15-1.32.84.17,1.88.27,2.77.27.08,0,.21,0,.38-.01v-.99c0-.53-.01-.76-.04-1.29.75.04,1.26.09,1.62.18.3.06.39.13.39.3,0,.08-.01.11-.12.35-.1.25-.12.31-.18,1.35.9-.1,1.62-.25,2.33-.46.04-.01.06-.01.08-.01.1,0,.1.01.27.49.11.32.21.71.21.83,0,.11-.04.17-.2.21-.49.17-1.78.39-2.73.5,0,1.07,0,1.11.01,1.63,1.05-.13,1.62-.29,2.81-.72.07-.03.1-.04.15-.04.09,0,.12.04.27.41.15.38.29.79.29.94,0,.08-.06.13-.17.18-.83.3-2.33.66-3.27.76.03.57.06.88.15,2.05.84.25,1.18.39,1.83.74.72.36,1.11.61,1.75,1.12.12.09.17.17.17.29,0,.1-.14.36-.42.81-.33.5-.5.69-.6.69-.04,0-.09-.01-.13-.06-.9-.85-1.49-1.28-2.49-1.77-.06.72-.22,1.12-.63,1.5-.51.49-1.36.76-2.43.76-1.84,0-2.98-.81-2.98-2.12,0-.57.24-1.12.64-1.5.58-.54,1.47-.83,2.59-.83.36,0,.67.03,1.05.08-.07-.97-.1-1.32-.12-1.63-.34.01-.54.01-.72.01-1.04,0-2.29-.16-3-.38-.15-.04-.21-.12-.21-.24,0-.23.09-.71.23-1.32.93.23,2.11.36,3.22.36h.43ZM163.57,290.47c-.96,0-1.49.29-1.49.79,0,.45.43.69,1.28.69.97,0,1.42-.34,1.42-1.09v-.25c-.39-.11-.69-.14-1.21-.14Z"/>
        <path d="M178.2,280.98c.37.1.48.18.48.34,0,.11-.01.15-.09.36-.17.43-.29,1.2-.34,2.25-.12,2.42-.18,4.29-.18,5.77,0,.48.04.84.12,1.08.17.5.69.75,1.53.75,1.35,0,2.62-.55,3.79-1.65.54-.51.87-.92,1.42-1.74.09.48.21.79.54,1.47.04.12.08.21.08.34,0,.27-.29.63-1.04,1.3-1.49,1.33-3.13,2.03-4.86,2.03-1.14,0-1.98-.29-2.52-.83-.57-.6-.79-1.38-.79-2.86,0-1.17.01-2.07.13-5.57.02-.52.03-.84.03-.97,0-1.28-.01-1.65-.11-2.29.77.03,1.35.09,1.8.21Z"/>
        <path d="M194.94,289.69c1.08.36,1.54.55,2.31.99.99.57,1.16.72,1.16,1,0,.14-.2.45-.51.86-.22.29-.32.36-.43.36q-.09,0-.58-.45c-.54-.5-1.12-.86-1.89-1.16,0,1.23-.93,1.91-2.64,1.91-1.53,0-2.45-.67-2.45-1.79s1.05-1.98,2.52-1.98c.27,0,.48.01,1.04.06-.11-1.8-.15-3.04-.17-4.51,0-.88-.03-1.16-.14-1.63.63.01,1.31.07,1.61.13.21.06.27.12.27.27,0,.08,0,.09-.09.27-.1.25-.17.85-.18,1.86.94-.04,1.46-.13,2.61-.45.03-.02.06-.02.08-.02.04,0,.09.02.11.04.1.14.3.99.3,1.32,0,.13-.04.17-.58.29-.9.18-1.61.27-2.49.29.02.73.04,1.15.17,2.34ZM192.34,290.71c-.72,0-1.09.21-1.09.63,0,.36.33.53,1,.53s1.02-.17,1.15-.54c.05-.12.06-.2.06-.46-.32-.11-.62-.15-1.12-.15Z"/>
        <path d="M206.93,284.41c.97-.25,1.62-.34,2.33-.34,2.13,0,3.36,1.26,3.36,3.42,0,1.88-.81,3.39-2.45,4.59-.87.64-2.19,1.29-2.62,1.29-.2,0-.24-.04-.56-.5-.22-.34-.45-.55-.82-.83,1.72-.58,2.44-.96,3.22-1.63.9-.79,1.35-1.75,1.35-2.89,0-1.22-.57-1.91-1.58-1.91-.81,0-1.86.31-3.22.97-.2.09-.3.17-.55.35-.06.03-.12.06-.18.06-.29,0-.77-.84-1.1-1.96.56-.04.84-.12,2.82-.62ZM207.93,280.75c.54.17,1.35.32,2.08.41.3.03.41.04,1.17.08.22,0,.29.06.29.22,0,.5-.11,1.31-.2,1.46-.03.09-.1.12-.21.12-.34,0-1.56-.17-2.26-.31-1.19-.24-2.22-.54-2.43-.71-.05-.04-.08-.11-.08-.17,0-.12.31-.93.46-1.21.08-.12.12-.15.21-.15q.08,0,.96.27Z"/>
        <path d="M224.4,292.05c0,.66-.53,1.18-1.18,1.18s-1.19-.52-1.19-1.18.53-1.18,1.19-1.18,1.18.52,1.18,1.18ZM223.87,289.83h-1.33l-.41-8.98h2.16l-.42,8.98Z"/>
      </g>
      <g>
        <path d="M102.44,122.68c.97-.25,1.62-.35,2.33-.35,2.13,0,3.36,1.26,3.36,3.42,0,1.88-.81,3.39-2.45,4.59-.87.65-2.19,1.29-2.62,1.29-.2,0-.24-.04-.56-.5-.22-.34-.45-.55-.82-.82,1.72-.58,2.44-.96,3.22-1.64.9-.79,1.35-1.75,1.35-2.89,0-1.22-.57-1.91-1.58-1.91-.81,0-1.86.31-3.22.98-.2.09-.3.17-.55.35-.06.03-.12.06-.18.06-.29,0-.77-.84-1.1-1.96.56-.04.84-.12,2.82-.61ZM103.44,119.02c.54.17,1.35.32,2.08.41.3.03.41.04,1.17.07.22,0,.29.06.29.23,0,.5-.11,1.31-.2,1.46-.03.09-.1.12-.21.12-.34,0-1.56-.17-2.26-.31-1.19-.24-2.22-.54-2.43-.71-.05-.04-.08-.1-.08-.17,0-.12.31-.93.46-1.21.08-.12.12-.15.21-.15q.08,0,.96.27Z"/>
        <path d="M119.21,119.56c.18.12.25.21.25.31s-.01.12-.24.38c-.08.09-.3.42-.54.83q-.75,1.25-1.16,1.96c-.42.71-.69,1.19-.84,1.41q-.04.07-.25.45c-.2.35-.32.52-.53.81.97-.85,1.5-1.08,2.49-1.08.66,0,1.25.29,1.62.78.31.42.4.81.54,2.28.07.88.15,1.27.25,1.5.1.21.31.33.58.33,1.03,0,2.26-1.25,2.86-2.88.15.63.27.93.58,1.48.11.18.14.3.14.45,0,.17-.08.38-.26.66-.78,1.26-2.05,2.01-3.42,2.01-.85,0-1.57-.3-1.95-.79-.3-.42-.44-.98-.56-2.44-.07-.96-.15-1.29-.36-1.53-.17-.18-.41-.27-.74-.27-.99,0-2.29,1.33-3.06,3.1-.22.51-.38.97-.54,1.54-.06.22-.13.31-.24.31-.31,0-1.04-.3-1.42-.58-.1-.09-.15-.15-.15-.24,0-.07.03-.15.22-.57.12-.27.17-.35.27-.62q1.11-2.59,4.19-8.82c.34-.69.51-1.12.61-1.58.78.29,1.14.47,1.62.79Z"/>
        <path d="M134.37,130.31c0,.66-.52,1.18-1.18,1.18s-1.19-.52-1.19-1.18.53-1.19,1.19-1.19,1.18.52,1.18,1.19ZM133.85,128.09h-1.33l-.41-8.98h2.16l-.42,8.98Z"/>
        <path d="M142.83,123.02c-.27.02-.43.03-.61.05-.14.01-.15.01-.17.01-.12,0-.18-.04-.23-.19-.08-.24-.18-1.04-.19-1.48.17.01.6.03,1.14.03.17,0,1.35-.07,1.88-.12.25-1.21.34-1.84.34-2.65,1.54.21,2.1.39,2.1.68,0,.1-.01.13-.24.48-.12.18-.17.34-.42,1.27.7-.12,1.12-.23,1.68-.41.1-.03.15-.04.22-.04.11,0,.13.08.23.51.07.37.12.69.12.85,0,.18-.04.21-.43.3-.51.12-1.38.27-2.31.39-.56,1.68-.93,2.58-1.62,3.99-.53,1.05-.83,1.6-1.23,2.23-.12.18-.19.24-.3.24-.15,0-.57-.22-1.09-.61-.24-.17-.3-.24-.3-.35s.06-.19.25-.46c.43-.54,1-1.47,1.5-2.46.42-.82.57-1.17,1-2.35-.58.05-.63.06-1.32.1ZM147.77,131.66c-1.64,0-2.75-.9-2.75-2.23s1.15-2.41,2.7-2.41c.36,0,.53.01,1.14.1-.06-.72-.06-1.01-.12-2.4,0-.29-.03-.68-.06-1.16.77.08,1.35.17,1.64.29.12.04.18.12.18.24,0,.08-.01.14-.03.24-.08.31-.09.54-.09.94,0,.56.04,1.5.09,2.23,1.07.48,1.5.72,2.25,1.31.33.25.45.39.45.51,0,.15-.08.29-.5.96-.18.3-.31.44-.42.44q-.09,0-.51-.39c-.33-.33-.71-.58-1.23-.9,0,1.4-1.02,2.23-2.74,2.23ZM147.74,128.45c-.72,0-1.21.34-1.21.87,0,.5.45.81,1.12.81.79,0,1.21-.4,1.21-1.2,0-.12,0-.24-.02-.24-.3-.15-.7-.24-1.11-.24ZM153.35,124.19c-.18.26-.27.33-.38.33-.08,0-.13-.03-.24-.13-.38-.36-.9-.75-1.46-1.1q-.36-.22-1.02-.52c-.21-.09-.29-.15-.29-.27,0-.1.08-.24.3-.58.36-.52.45-.61.58-.61.28,0,1.39.57,2.19,1.11.65.44.84.61.84.78,0,.12-.24.57-.54,1Z"/>
        <path d="M162.59,119.56c.18.12.25.21.25.31s-.01.12-.24.38c-.08.09-.3.42-.54.83q-.75,1.25-1.16,1.96c-.42.71-.69,1.19-.84,1.41q-.04.07-.25.45c-.2.35-.32.52-.53.81.97-.85,1.5-1.08,2.49-1.08.66,0,1.25.29,1.62.78.31.42.4.81.54,2.28.07.88.15,1.27.25,1.5.1.21.31.33.58.33,1.03,0,2.26-1.25,2.86-2.88.15.63.27.93.58,1.48.11.18.14.3.14.45,0,.17-.08.38-.26.66-.78,1.26-2.05,2.01-3.42,2.01-.86,0-1.58-.3-1.95-.79-.3-.42-.44-.98-.56-2.44-.07-.96-.15-1.29-.36-1.53-.17-.18-.41-.27-.74-.27-.99,0-2.29,1.33-3.06,3.1-.22.51-.38.97-.54,1.54-.06.22-.13.31-.24.31-.31,0-1.04-.3-1.42-.58-.1-.09-.15-.15-.15-.24,0-.07.03-.15.22-.57.12-.27.17-.35.27-.62q1.11-2.59,4.19-8.82c.34-.69.51-1.12.61-1.58.78.29,1.14.47,1.62.79Z"/>
        <path d="M175.82,128.2c-.72,1.25-1.71,1.94-2.73,1.94-1.56,0-2.67-1.53-2.67-3.66,0-2.37,1.2-4.41,3.25-5.49,1-.54,2.08-.78,3.51-.78,3.14,0,5.46,2.22,5.46,5.19,0,2.62-1.29,4.51-3.78,5.58-.5.21-.89.33-1.08.33-.18,0-.25-.06-.45-.34-.25-.39-.54-.68-.95-.95,3.09-.79,4.49-2.25,4.49-4.68,0-1.25-.53-2.29-1.46-2.96-.53-.36-.95-.51-1.77-.64-.42,3.16-.92,4.89-1.83,6.46ZM173.66,122.89c-1,.88-1.58,2.15-1.58,3.55,0,1.16.38,1.83,1,1.83.75,0,1.52-1.04,2.08-2.82.36-1.12.54-1.98.77-3.65-1.07.23-1.59.48-2.28,1.08Z"/>
        <path d="M185.57,123.4h-.09c-.08.02-.14.02-.17.02-.13,0-.21-.06-.25-.25-.09-.38-.15-.84-.18-1.41.21.02.38.02.48.02.81,0,1.75-.06,2.55-.17.15-.99.22-1.75.22-2.37v-.35c1.74.23,2.07.33,2.06.6,0,.07-.03.12-.09.25-.18.35-.19.39-.43,1.57.58-.1,1.33-.3,1.63-.4.06-.03.08-.03.12-.03.13,0,.17.06.29.58.06.3.12.72.12.84,0,.1-.04.17-.18.19q-.27.09-2.32.45c-.69,3.04-1.41,5.29-2.57,7.99-.08.19-.15.27-.24.27-.2,0-.72-.21-1.23-.5-.25-.13-.33-.21-.33-.29,0-.06.04-.16.12-.31,1.14-2.16,1.96-4.45,2.54-6.93-.66.09-1.12.14-2.04.21ZM191.97,129.1c.44.29,1.07.42,1.95.42.97,0,1.82-.09,2.29-.24.12-.03.15-.04.21-.04.13,0,.2.04.24.18.1.31.18.93.18,1.39,0,.2-.06.27-.25.31-.5.11-1.33.17-2.22.17-1.88,0-2.92-.3-3.62-1.02-.25-.27-.46-.62-.58-.99-.09-.21-.15-.46-.15-.55,0-.26.45-.53,1.23-.78.17.63.34.9.72,1.15ZM196.19,124.73c-.3-.04-.93-.07-1.46-.07-1.11,0-1.57.04-2.89.27-.03.01-.08.01-.1.01-.09,0-.14-.03-.17-.12-.04-.1-.11-.84-.11-1.16,0-.19.03-.28.15-.33.06-.03.15-.04.46-.1,1.02-.18,1.88-.25,2.92-.25.87,0,1.32.03,1.42.1.08.06.09.18.09.68,0,.43-.03.82-.06.91-.02.05-.08.08-.15.08-.03,0-.08,0-.12-.02Z"/>
        <path d="M205.85,121.85c.23-1.23.3-1.75.3-2.25,0-.06,0-.15-.01-.25,1.26.18,1.98.47,1.98.79,0,.12-.02.14-.18.44-.12.21-.22.57-.43,1.37,1.02.18,1.88.63,2.55,1.3.83.83,1.23,1.85,1.23,3.09,0,2.08-1.14,3.71-3.16,4.53-.41.17-1.2.38-1.4.38-.12,0-.2-.06-.3-.21-.24-.39-.6-.78-1.04-1.09,1.51-.25,2.24-.52,2.99-1.14.79-.65,1.2-1.48,1.2-2.5,0-1.52-.97-2.74-2.41-3.03-.5,1.56-1.04,2.8-1.7,3.94.22.23.36.36.6.58.17.15.23.24.23.34,0,.26-.84,1.08-1.08,1.08-.12,0-.32-.13-.75-.57-.92,1.09-1.82,1.63-2.71,1.63-1.25,0-2.07-1.05-2.07-2.65,0-1.44.6-2.77,1.75-3.9-.21-.54-.24-.67-.57-1.71-.12-.39-.25-.81-.44-1.24.54-.12,1.25-.23,1.61-.23.15,0,.24.04.28.15q.05.08.06.44c.01.31.15.88.38,1.57.97-.55,2.07-.87,3.1-.85ZM202.07,125.21c-.56.74-.86,1.52-.86,2.22s.29,1.12.72,1.12c.46,0,.9-.32,1.51-1.06-.55-.74-.93-1.37-1.38-2.28ZM205.5,123.2c-.83.12-1.47.36-2.23.87.39.78.69,1.29,1.15,1.9.51-.99.81-1.75,1.08-2.77Z"/>
        <path d="M217.47,127.48c.04.07.06.13.06.21,0,.1-.02.12-.15.45-.3.69-.66,1.77-.84,2.58-.04.17-.09.25-.15.29-.08.03-.59.1-.75.1h-.06c-.08,0-.18-.02-.3-.02-.2,0-.24-.04-.3-.23-.29-.97-.51-2.98-.51-4.5,0-1.65.1-2.67.52-4.92.15-.81.22-1.26.29-1.75.63.12,1.17.27,1.62.48.25.1.33.18.33.33,0,.1-.02.15-.18.39-.5.79-1.05,3.98-1.05,6.12,0,.34.02.81.06,1.56.42-.94.57-1.23.92-1.96.13.31.22.46.49.87ZM220.73,128.54c.48.25,1.05.34,2.06.34s1.53-.07,2.46-.34c.09-.03.16-.04.21-.04.1,0,.18.06.19.21.08.51.13,1.11.13,1.41,0,.15-.04.2-.25.26-.81.21-1.63.31-2.64.31-1.38,0-2.23-.17-2.94-.58-.66-.41-1.35-1.23-1.35-1.64,0-.21.32-.49,1.12-.99.27.54.53.81,1,1.06ZM219.68,120.89c.33.08,1.29.14,2.03.14.99,0,1.98-.08,2.91-.24q.08-.01.14-.01c.1,0,.15.04.18.16.03.15.08.81.08,1.22,0,.22-.04.3-.21.33-.62.12-1.63.2-2.71.2-1.29,0-2.45-.08-2.59-.17-.08-.04-.11-.15-.11-.42,0-.41.04-1,.08-1.12.01-.06.06-.09.15-.09.02,0,.04,0,.08.01Z"/>
        <path d="M228.2,128.02c.27-.24.34-.3.45-.3.19,0,1.09.66,1.75,1.29.75.69,1.59,1.69,1.59,1.9,0,.14-.03.17-.46.56-.57.52-.69.61-.79.61-.09,0-.18-.06-.25-.21-.53-.93-1.73-2.16-2.79-2.85-.12-.09-.18-.15-.18-.24,0-.1.03-.15.69-.76Z"/>
        <path d="M246.81,123.59c-.19-.66-.25-1.06-.43-2.91-.06-.72-.12-1.08-.27-1.59.91.02,1.5.06,1.9.17.23.06.33.17.33.33,0,.06-.01.13-.04.25-.1.36-.15.63-.15,1.02,0,.73.15,1.94.32,2.46.09.28.18.39.34.39.36,0,1.68-.69,2.4-1.24.19-.15.22-.17.3-.17.13,0,.27.1.5.39.38.51.67,1.06.67,1.27,0,.17-.11.27-.36.34-.93.25-2.46.85-3.49,1.35-1.83.9-2.66,1.73-2.66,2.65s.76,1.29,2.7,1.29c1.12,0,2.14-.1,3.52-.33.06-.02.17-.03.2-.03.12,0,.19.06.25.18.04.15.15,1.06.15,1.43,0,.21-.06.28-.26.34-.33.08-2.14.18-3.28.18-1.92,0-3.2-.26-3.99-.79-.67-.47-1.04-1.2-1.04-2.1,0-.69.2-1.31.6-1.9.52-.78,1.09-1.27,2.35-2.02-.31-.29-.43-.5-.57-.96ZM252.26,120.23c.12-.09.2-.12.29-.12.21,0,1.51,1.38,1.51,1.6,0,.09-.12.23-.41.46-.3.25-.33.27-.4.27-.09,0-.11,0-.39-.42-.3-.42-.72-.9-1.04-1.17-.04-.04-.07-.09-.07-.14,0-.07.13-.21.51-.49ZM255.51,120.64c0,.09-.04.15-.22.3-.21.18-.5.38-.56.38-.09,0-.12-.04-.3-.28-.34-.5-.55-.73-1.09-1.23-.06-.06-.08-.09-.08-.14,0-.13.57-.57.75-.57.25,0,1.5,1.27,1.5,1.54Z"/>
        <path d="M261.5,122.68c.97-.25,1.62-.35,2.33-.35,2.13,0,3.36,1.26,3.36,3.42,0,1.88-.81,3.39-2.45,4.59-.87.65-2.19,1.29-2.62,1.29-.2,0-.24-.04-.56-.5-.22-.34-.45-.55-.82-.82,1.72-.58,2.44-.96,3.22-1.64.9-.79,1.35-1.75,1.35-2.89,0-1.22-.57-1.91-1.58-1.91-.81,0-1.86.31-3.22.98-.2.09-.3.17-.55.35-.06.03-.12.06-.18.06-.29,0-.77-.84-1.1-1.96.56-.04.84-.12,2.82-.61ZM262.5,119.02c.54.17,1.35.32,2.08.41.3.03.41.04,1.17.07.22,0,.29.06.29.23,0,.5-.11,1.31-.2,1.46-.03.09-.1.12-.21.12-.34,0-1.56-.17-2.26-.31-1.19-.24-2.22-.54-2.43-.71-.05-.04-.08-.1-.08-.17,0-.12.31-.93.46-1.21.08-.12.12-.15.21-.15q.08,0,.96.27Z"/>
        <path d="M272.48,125.96c0-.44.02-.93.05-1.6-.32.56-.54.92-1.02,1.52-.18-.69-.34-1.12-.64-1.71,1.32-1.46,2.43-3.82,2.68-5.73l1.65.39c-.53,1.65-.68,2.06-1.19,3.19v8.19c0,.63.01,1.08.08,1.66h-1.7c.08-.55.09-.96.09-1.68v-4.23ZM279.96,126.68c-.17.9-.38,1.5-.81,2.2,1.54.83,3,1.17,5.42,1.26-.27.51-.48,1.06-.63,1.6-2.42-.26-4.08-.78-5.67-1.79-.81.78-1.74,1.32-3.19,1.85-.27-.53-.57-.98-.89-1.35,1.32-.38,2.16-.77,2.91-1.4-.36-.33-.57-.57-.9-.99-.2-.26-.3-.39-.45-.53l1.26-.67c.18.36.46.72.95,1.15.27-.46.4-.82.51-1.35h-2.1c-.48,0-.83.01-1.17.06.03-.42.04-.71.04-1.2v-2.01c0-.6-.02-.87-.04-1.21.4.03.66.04,1.32.04h2.24c0-.08,0-.42-.02-1.04h-2.37c-.58,0-.95.02-1.38.06v-1.54c.42.06.99.09,1.55.09h2.2c-.01-.75-.03-.99-.09-1.45h1.65q-.04.42-.04,1.45h2.5c.66,0,1.11-.03,1.63-.09v1.54c-.44-.04-.86-.06-1.44-.06h-2.7v1.04h2.13c.61,0,.94-.02,1.35-.04-.03.36-.04.73-.04,1.26v1.86c0,.67.01.94.04,1.31-.42-.05-.74-.06-1.41-.06h-2.35ZM276.74,123.74v1.57h1.9c.04-.58.06-.72.09-1.57h-1.99ZM280.22,123.74c-.01.52-.04,1.05-.09,1.57h2.04v-1.57h-1.95Z"/>
        <path d="M290.42,122.68c.97-.25,1.62-.35,2.33-.35,2.13,0,3.36,1.26,3.36,3.42,0,1.88-.81,3.39-2.45,4.59-.87.65-2.19,1.29-2.62,1.29-.2,0-.24-.04-.56-.5-.22-.34-.45-.55-.82-.82,1.72-.58,2.44-.96,3.22-1.64.9-.79,1.35-1.75,1.35-2.89,0-1.22-.57-1.91-1.58-1.91-.81,0-1.86.31-3.22.98-.2.09-.3.17-.55.35-.06.03-.12.06-.18.06-.29,0-.77-.84-1.1-1.96.56-.04.84-.12,2.82-.61ZM291.42,119.02c.54.17,1.35.32,2.08.41.3.03.41.04,1.17.07.22,0,.29.06.29.23,0,.5-.11,1.31-.2,1.46-.03.09-.1.12-.21.12-.34,0-1.56-.17-2.26-.31-1.19-.24-2.22-.54-2.43-.71-.05-.04-.08-.1-.08-.17,0-.12.31-.93.46-1.21.08-.12.12-.15.21-.15q.08,0,.96.27Z"/>
        <path d="M301.76,124.15c-.12.03-.18.06-.27.1-.08.04-.12.06-.2.06-.32,0-.55-.58-.74-1.69.12.02.23.02.29.02.63,0,2.24-.2,3.2-.39.31-1.32.48-2.31.48-3.03,0-.06,0-.14-.01-.25.64.07,1.26.21,1.68.38.24.09.36.22.36.38,0,.07-.02.12-.09.24q-.23.4-.69,2.06c.36-.05.76-.08,1.02-.08.62,0,1.1.12,1.44.36.6.44.9,1.32.9,2.69,0,2.23-.41,4.14-1.1,5.08-.48.66-1.11.98-1.99.98-.54,0-1.05-.07-1.2-.17q-.12-.07-.17-.63c-.04-.4-.13-.75-.32-1.17.78.25.98.3,1.46.3.72,0,1.02-.34,1.35-1.54.23-.79.35-1.83.35-2.92,0-1.17-.29-1.59-1.08-1.59-.27,0-.71.03-1.05.09-.04.17-.06.18-.12.39-.42,1.53-1.19,3.55-1.95,5.17-.79,1.63-.99,1.96-1.18,1.96-.12,0-.53-.21-.96-.5-.35-.21-.44-.3-.44-.42q0-.07.62-1.05c.83-1.27,1.91-3.78,2.28-5.25-1.11.24-1.73.39-1.86.44ZM309.41,122.47c0-.1.14-.24.57-.58.3-.23.45-.31.55-.31.09,0,.17.04.36.24.88.85,1.71,2,2.19,2.98.15.33.24.54.24.63,0,.15-.04.2-.52.58-.3.24-.65.44-.77.44-.1,0-.15-.04-.25-.3-.3-.73-.58-1.31-.94-1.86-.39-.6-.47-.69-1.35-1.64-.06-.09-.08-.13-.08-.18Z"/>
        <path d="M316.01,124.48c-.12.03-.18.06-.27.1-.08.04-.12.06-.18.06-.33,0-.57-.57-.75-1.68h.29c.63,0,2.24-.2,3.2-.39.31-1.31.48-2.31.48-3.02,0-.06,0-.15-.01-.25.64.06,1.26.19,1.68.38.24.09.36.21.36.36,0,.08-.02.14-.09.26q-.23.39-.69,2.04c.36-.04.76-.07,1.02-.07.62,0,1.1.12,1.44.36.6.44.9,1.32.9,2.69,0,2.23-.41,4.15-1.1,5.1-.48.66-1.11.98-2,.98-.54,0-1.05-.08-1.2-.17q-.12-.08-.17-.63c-.04-.41-.13-.77-.32-1.19.78.27.98.31,1.46.31.72,0,1.02-.35,1.35-1.56.23-.79.35-1.81.35-2.92,0-1.17-.29-1.59-1.08-1.59-.27,0-.71.04-1.05.09-.04.18-.06.2-.12.39-.42,1.54-1.19,3.55-1.95,5.17-.79,1.63-.99,1.96-1.18,1.96-.12,0-.53-.21-.96-.5-.35-.21-.44-.3-.44-.42q0-.07.62-1.05c.83-1.27,1.91-3.77,2.28-5.25-1.11.25-1.73.39-1.86.44ZM325.43,121.4c-.24.18-.41.25-.48.25-.04,0-.09-.03-.13-.1-.32-.51-.84-1.1-1.28-1.47-.03-.03-.04-.06-.04-.09,0-.06.11-.17.36-.36.25-.18.33-.23.43-.23.24,0,1.56,1.33,1.56,1.58,0,.09-.12.19-.42.42ZM323.84,122.99c0-.1.13-.24.57-.58.3-.23.45-.31.57-.31.2,0,.87.72,1.5,1.6.52.75,1.09,1.81,1.09,2.07,0,.15-.04.19-.52.58-.3.24-.65.44-.77.44-.1,0-.15-.04-.25-.3-.29-.72-.54-1.21-.95-1.86-.4-.65-.43-.67-1.15-1.45-.06-.08-.09-.12-.09-.18ZM325.8,118.39c.25,0,1.53,1.27,1.53,1.53,0,.07-.09.17-.39.38-.27.21-.41.28-.46.28q-.08,0-.38-.42c-.25-.34-.74-.85-1-1.08-.04-.04-.08-.07-.08-.12,0-.12.62-.57.78-.57Z"/>
        <path d="M105.08,149.81c.34,1.29,1.11,2.68,2.07,3.76,1.06,1.23,2.26,2.04,3.97,2.75-.5.57-.69.88-1.05,1.65-2.85-1.45-4.65-3.37-5.73-6.12-.43,1.47-1.2,2.73-2.35,3.85-.97.97-2.01,1.65-3.43,2.28-.24-.56-.54-1-1-1.52,1.75-.7,3-1.56,3.93-2.68.9-1.09,1.38-2.25,1.63-3.97h-3.39c-.92,0-1.33.01-1.82.09v-1.8c.45.06.98.09,1.82.09h3.54c.03-.66.04-1,.04-1.58,0-.72-.03-1.15-.11-1.57h1.91c-.08.51-.09.7-.11,1.69,0,.62-.01.95-.03,1.46h3.81c.81,0,1.33-.03,1.81-.09v1.8c-.55-.06-1-.09-1.8-.09h-3.72Z"/>
        <path d="M117.83,152.05h-3.4c-.53,0-.93.02-1.32.06v-1.26c.33.04.72.06,1.35.06h3.38v-.55h-3.04c-.51,0-.87.01-1.21.04.03-.32.04-.6.04-.97v-.95c0-.41-.01-.63-.04-1,.41.03.69.04,1.23.04h3.03v-.54h-3.94c-.72,0-1.17.01-1.68.08v-1.42c.45.06.93.09,1.77.09h3.85c-.01-.51-.03-.66-.09-.99h1.72c-.06.32-.08.45-.09.99h4.05c.84,0,1.3-.03,1.77-.09v1.42c-.48-.04-.99-.08-1.68-.08h-4.14v.54h3.27c.56,0,.84-.01,1.2-.04-.03.33-.04.55-.04,1v.95c0,.45.02.66.04.97-.33-.03-.67-.04-1.14-.04h-3.33v.55h3.25c.84,0,1.08-.01,1.53-.04-.04.38-.04.55-.04,1.3v.51c.63,0,.94-.03,1.25-.08v1.36c-.35-.04-.62-.07-1.25-.07v.84c0,.76.01,1.11.08,1.54h-1.61v-.56h-3.21v.81c0,1.29-.36,1.56-2.1,1.56-.36,0-.88-.01-1.4-.04-.07-.58-.17-.87-.43-1.44.76.09,1.3.13,1.8.13s.58-.06.58-.34v-.68h-3.39c-.63,0-1,.02-1.42.06v-1.32c.39.04.63.06,1.38.06h3.43v-.63h-4.12c-.81,0-1.21.01-1.59.07v-1.36c.39.06.72.08,1.56.08h4.15v-.63ZM115.14,148.64v.58h2.68v-.58h-2.68ZM119.37,149.23h2.9v-.58h-2.9v.58ZM122.58,152.68v-.63h-3.21v.63h3.21ZM119.37,154.52h3.21v-.63h-3.21v.63Z"/>
        <path d="M128.37,149.27c-.27.01-.43.03-.61.04-.14.01-.15.01-.17.01-.12,0-.18-.04-.23-.19-.08-.24-.18-1.04-.19-1.49.17.01.6.03,1.14.03.17,0,1.35-.08,1.88-.12.25-1.21.34-1.84.34-2.66,1.54.21,2.1.39,2.1.68,0,.1-.01.13-.24.48-.12.18-.17.34-.42,1.28.7-.12,1.12-.23,1.68-.41.1-.03.15-.04.22-.04.11,0,.13.08.23.51.07.38.12.69.12.86,0,.18-.04.21-.43.3-.51.12-1.38.27-2.31.39-.56,1.68-.93,2.58-1.62,3.99-.53,1.05-.83,1.6-1.23,2.23-.12.18-.19.24-.3.24-.15,0-.57-.22-1.09-.62-.24-.17-.3-.24-.3-.34s.06-.2.25-.46c.43-.54,1-1.47,1.5-2.46.42-.83.57-1.17,1-2.36-.58.05-.63.06-1.32.11ZM133.31,157.91c-1.64,0-2.75-.9-2.75-2.24s1.15-2.41,2.7-2.41c.36,0,.53.01,1.14.1-.06-.72-.06-1-.12-2.4,0-.29-.03-.68-.06-1.16.77.08,1.35.17,1.64.29.12.04.18.12.18.24,0,.08-.01.14-.03.24-.08.32-.09.54-.09.95,0,.55.04,1.5.09,2.23,1.07.48,1.5.72,2.25,1.31.33.25.45.39.45.51,0,.15-.08.29-.5.96-.18.3-.31.43-.42.43q-.09,0-.51-.39c-.33-.33-.71-.58-1.23-.9,0,1.4-1.02,2.24-2.74,2.24ZM133.28,154.7c-.72,0-1.21.34-1.21.87,0,.5.45.81,1.12.81.79,0,1.21-.4,1.21-1.2,0-.12,0-.24-.02-.24-.3-.15-.7-.24-1.11-.24ZM138.89,150.44c-.18.25-.27.33-.38.33-.08,0-.13-.03-.24-.13-.38-.36-.9-.75-1.46-1.1q-.36-.22-1.02-.52c-.21-.09-.29-.15-.29-.27,0-.1.08-.24.3-.58.36-.52.45-.61.58-.61.28,0,1.39.57,2.19,1.11.65.44.84.62.84.78,0,.12-.24.57-.54,1Z"/>
        <path d="M148.13,145.81c.18.12.25.21.25.31s-.01.12-.24.38c-.08.09-.3.42-.54.83q-.75,1.25-1.16,1.96c-.42.71-.69,1.19-.84,1.41q-.04.08-.25.45c-.2.34-.32.52-.53.81.97-.85,1.5-1.08,2.49-1.08.66,0,1.25.29,1.62.78.31.42.4.81.54,2.28.07.88.15,1.27.25,1.5.1.21.31.33.58.33,1.03,0,2.26-1.25,2.86-2.88.15.63.27.93.58,1.48.11.18.14.3.14.45,0,.17-.08.38-.26.66-.78,1.26-2.05,2.01-3.42,2.01-.85,0-1.57-.3-1.95-.79-.3-.42-.44-.98-.56-2.45-.07-.96-.15-1.29-.36-1.53-.17-.18-.41-.27-.74-.27-.99,0-2.29,1.33-3.06,3.11-.22.51-.38.97-.54,1.54-.06.22-.13.31-.24.31-.31,0-1.04-.3-1.42-.58-.1-.09-.15-.15-.15-.24,0-.07.03-.15.22-.57.12-.27.17-.35.27-.62q1.11-2.59,4.19-8.82c.34-.69.51-1.12.61-1.58.78.29,1.14.46,1.62.79Z"/>
        <path d="M156.54,149.83h-.09c-.08.02-.13.02-.17.02-.13,0-.21-.06-.25-.26-.09-.37-.15-.82-.18-1.41.21.01.38.01.48.01.81,0,1.75-.06,2.55-.17.15-.99.23-1.74.23-2.37v-.34c1.74.24,2.07.33,2.05.6,0,.08-.03.12-.09.26-.18.34-.2.39-.44,1.57.58-.1,1.33-.3,1.64-.4.06-.03.07-.03.12-.03.13,0,.16.06.28.58.06.3.12.72.12.84,0,.11-.04.17-.18.2q-.27.09-2.33.45c-.69,3.06-1.41,5.29-2.56,8-.08.2-.15.27-.24.27-.2,0-.72-.21-1.23-.49-.26-.14-.33-.2-.33-.29,0-.06.04-.17.12-.32,1.14-2.16,1.97-4.45,2.54-6.91-.66.07-1.12.12-2.04.19ZM162.95,155.53c.43.29,1.06.42,1.95.42.97,0,1.81-.09,2.29-.24.12-.03.15-.04.21-.04.13,0,.19.04.24.18.11.32.18.93.18,1.4,0,.19-.06.27-.26.31-.49.11-1.33.17-2.22.17-1.88,0-2.92-.3-3.61-1.02-.25-.27-.46-.6-.58-.98-.09-.22-.15-.48-.15-.57,0-.25.45-.53,1.23-.78.17.63.34.92.72,1.16ZM167.16,151.16c-.3-.04-.93-.08-1.46-.08-1.11,0-1.58.05-2.89.27-.03.01-.08.01-.11.01-.09,0-.13-.03-.17-.12-.04-.1-.1-.84-.1-1.15,0-.2.03-.29.15-.33.06-.03.15-.04.46-.11,1.02-.18,1.88-.25,2.92-.25.87,0,1.32.03,1.43.11.07.06.09.18.09.67,0,.43-.03.83-.06.92-.01.04-.08.08-.15.08-.03,0-.08,0-.12-.02ZM165.51,145.88c.2,0,1.47,1.42,1.47,1.65,0,.06-.1.2-.22.29-.06.04-.15.12-.25.21-.13.12-.18.15-.33.21t-.08.03c-.06,0-.06-.01-.34-.45-.25-.39-.74-.99-.99-1.21-.03-.03-.07-.09-.07-.11.03-.06.04-.09.04-.09.07-.09.33-.3.39-.34.15-.08.24-.13.25-.15.01-.03.03-.03.04-.03h.09ZM168.05,146.93c-.21.15-.36.24-.43.24-.06,0-.09-.03-.17-.15-.33-.54-.65-.93-1.14-1.42-.04-.04-.06-.08-.06-.12,0-.13.57-.55.76-.55.11,0,.29.15.62.5.48.49.83.94.83,1.09,0,.09-.11.19-.41.42Z"/>
        <path d="M177.09,150.11c.03,1.12.06,1.71.21,3.21,1.26.41,1.86.66,2.75,1.14,1.18.67,1.79,1.12,1.79,1.33,0,.18-.2.53-.54,1.02-.23.33-.39.48-.51.48-.08,0-.14-.03-.24-.13-1.07-1.02-1.92-1.58-3.18-2.08-.03.92-.2,1.39-.63,1.84-.53.53-1.44.81-2.62.81-1.96,0-3.17-.87-3.17-2.29,0-1.52,1.32-2.48,3.38-2.48.5,0,.93.03,1.3.08-.15-2.46-.2-3.64-.21-5.85-.01-.87-.04-1.39-.13-2.1.69.01,1.38.09,1.79.19.24.08.33.15.33.32,0,.08-.01.12-.06.24-.17.39-.22.96-.25,2.62q.12,0,.58-.03c.72-.04,1.74-.23,2.88-.54.04-.01.08-.01.12-.01.09,0,.12.03.18.18.15.36.32,1.09.32,1.35,0,.12-.06.17-.2.21-1.16.27-2.77.5-3.66.5h-.21ZM174.15,154.43c-1.02,0-1.63.34-1.63.91,0,.53.51.8,1.46.8,1.15,0,1.66-.41,1.66-1.35v-.12c-.49-.18-.92-.24-1.48-.24Z"/>
        <path d="M187.22,149.42c-1.06.18-1.3.22-1.56.3-.15.04-.27.06-.36.06-.27,0-.4-.48-.46-1.65.87,0,1.35-.04,2.42-.24,0-.48.01-1.04.01-1.23,0-.58-.03-1.09-.09-1.47,1.58.08,2.04.18,2.04.46q0,.08-.13.39t-.2,1.62c.48.38.74.68.72.87,0,.04-.03.08-.09.14-.22.19-.25.22-.52.61q-.06.08-.15.2l-.06.09c0,.23,0,.25-.02.54.45-.51.87-.93,1.28-1.26,1.32-1.08,2.31-1.53,3.39-1.53s1.77.44,2.29,1.33c.45.78.69,1.88.69,3.17,0,.78-.06,1.38-.23,2.5.72.51,1.5,1.3,1.5,1.51,0,.24-.84,1.08-1.09,1.08-.11,0-.12-.01-.32-.31-.12-.17-.28-.36-.61-.72-.21.39-.33.56-.54.75-.56.51-1.3.78-2.19.78-1.56,0-2.56-.79-2.56-2,0-1.27,1.04-2.23,2.4-2.23.78,0,1.35.1,1.86.33.06-.56.08-.83.08-1.31,0-2.37-.45-3.3-1.59-3.3-.81,0-1.89.57-3.03,1.59-.41.38-.72.69-1.37,1.4v.87c0,1.99.04,4,.11,4.53v.06c0,.27-.21.34-.93.34-.66,0-.79-.06-.79-.34v-.12c.03-.44.04-.96.04-1.62q0-.99.01-2.17s-.03.04-.06.08c-.33.4-.87,1.14-1.22,1.63-.17.24-.25.31-.36.31-.15,0-.42-.27-.88-.87-.18-.23-.29-.42-.29-.5s.08-.17.45-.5c.27-.25,1.29-1.5,1.81-2.19.27-.38.46-.64.58-.84v-1.15ZM192.96,154.57c-.69,0-1.11.29-1.11.75s.32.69.89.69c.5,0,.9-.15,1.17-.45.13-.14.34-.51.34-.57h0c-.51-.33-.81-.42-1.29-.42Z"/>
        <path d="M206.67,156.56c0,.66-.53,1.18-1.18,1.18s-1.19-.53-1.19-1.18.53-1.19,1.19-1.19,1.18.53,1.18,1.19ZM206.15,154.34h-1.33l-.41-8.98h2.16l-.42,8.98Z"/>
      </g>
      <g>
        <path class="cls-6" d="M42.89,154.62c5.99-4.81,10.66-4.4,11.63-2.77.89,1.5-.2,9.39-9.11,4.98"/>
        <path class="cls-4" d="M47.12,157.2c2.15-3.69,6.52-2.97,7.64-2.44-1.95,3.62-3.96,4.96-7.64,2.44Z"/>
        <path class="cls-1" d="M50.12,158.77c-1.31,0-2.94-.38-4.99-1.39-.3-.15-.42-.51-.28-.82.15-.3.52-.42.82-.28,3.32,1.64,5.84,1.68,7.29.12,1.3-1.4,1.35-3.69,1.02-4.24-.21-.35-.72-.62-1.4-.75-.91-.16-4.27-.39-9.33,3.68-.26.21-.65.17-.86-.09-.21-.26-.17-.65.09-.86,3.68-2.96,7.53-4.43,10.31-3.92,1.04.19,1.83.66,2.23,1.32.64,1.09.43,3.95-1.18,5.69-.75.81-1.93,1.54-3.74,1.54Z"/>
        <path class="cls-6" d="M48.37,168.84c1.64-16.82-17.11-22.8-25.64-13.47-2.97,3.25-5.19,9.02-4.06,15.77-3.29,3.25-2.73,7.92,2.42,10.46,3.1,1.53,6.19,2.19,13.34,2.19,6.63,0,14.3-2.8,16.45-6.93,1.2-2.31.78-5.72-2.5-8.03Z"/>
        <path class="cls-2" d="M38.15,151.21c-.6-4.19-4.15-6.52-4.34-.47"/>
        <path class="cls-2" d="M26.47,152.28c-.51-4.2,2.31-7.38,4.07-1.58"/>
        <path class="cls-6" d="M22.01,155.34c-6.66-3.82-11.21-2.69-11.91-.92-.65,1.62,2.36,9.82,10.47,4.08"/>
        <ellipse class="cls-1" cx="37.63" cy="170.79" rx="1.44" ry="1.56" transform="translate(-26.11 7.93) rotate(-8.95)"/>
        <path class="cls-4" d="M18.74,159.15c-2.15-3.69-7.03-2.78-8.16-2.25,1.95,3.62,4.47,4.77,8.16,2.25Z"/>
        <path class="cls-4" d="M31.56,150.73c1.23,7.46-2.33,14.45-12.53,14.45,0-11.42,12.53-14.45,12.53-14.45Z"/>
        <path class="cls-4" d="M33.81,150.75c0,8.41,6.81,12.72,13.84,13.25,0-11.42-13.84-13.25-13.84-13.25Z"/>
        <path class="cls-4" d="M17.59,177.61c13.81-6.39,25.45-3.61,33.28-.74-3.13,7.57-29.25,10.15-33.28.74Z"/>
        <path class="cls-1" d="M34.42,184.41c-7.59,0-10.64-.79-13.61-2.26-2.68-1.33-4.37-3.31-4.74-5.59-.32-1.98.37-3.96,1.94-5.63-1.1-7.13,1.47-12.92,4.26-15.97,4.25-4.65,11.25-5.93,17.42-3.18,3.01,1.34,5.47,3.51,7.11,6.28,1.79,3.02,2.53,6.54,2.2,10.49,3.38,2.56,3.63,6.22,2.4,8.6-2.36,4.54-10.49,7.26-16.99,7.26ZM33.05,151.57c-3.76,0-7.35,1.46-9.87,4.22-2.64,2.89-5.06,8.42-3.91,15.26.03.2-.03.39-.17.53-1.44,1.42-2.08,3.13-1.81,4.79.3,1.88,1.75,3.54,4.07,4.69,2.8,1.38,5.71,2.13,13.07,2.13,6.88,0,14.01-2.96,15.91-6.6,1.03-1.98.75-5.1-2.31-7.25-.18-.13-.28-.34-.26-.56.71-7.25-2.49-13.19-8.56-15.89-2.01-.89-4.11-1.33-6.15-1.33Z"/>
        <path class="cls-1" d="M34.06,180.9c-1.88,0-3.48-.99-4.4-2.72l-.45.09c-.33.07-.65-.14-.72-.47-.07-.33.14-.65.47-.72l.91-.19c.28-.06.57.09.68.35.73,1.67,2.12,2.55,3.82,2.43,1.72-.13,3.25-1.27,3.64-2.72.07-.28.34-.46.62-.45l.77.04c.34.02.59.3.58.64-.02.34-.31.59-.64.58l-.31-.02c-.69,1.72-2.5,2.99-4.57,3.14-.14.01-.27.02-.41.02Z"/>
        <ellipse class="cls-1" cx="37.63" cy="170.79" rx="1.44" ry="1.56" transform="translate(-26.11 7.93) rotate(-8.95)"/>
        <ellipse class="cls-1" cx="29.96" cy="171.15" rx="1.56" ry="1.44" transform="translate(-142.48 192.42) rotate(-87.1)"/>
        <path class="cls-1" d="M15.36,161.12c-1.46,0-2.58-.54-3.4-1.18-2.09-1.64-2.9-4.58-2.43-5.75.29-.72.99-1.3,1.99-1.65,2.66-.93,6.69-.08,10.79,2.27.29.17.39.54.22.83-.17.29-.54.39-.83.22-5.62-3.23-8.91-2.48-9.78-2.18-.65.23-1.11.57-1.26.95-.21.53.31,2.97,2.06,4.35,1.89,1.49,4.48,1.14,7.49-.99.27-.19.65-.13.85.15.19.27.13.65-.15.85-2.23,1.58-4.07,2.14-5.55,2.14Z"/>
        <path class="cls-1" d="M38.15,151.82c-.3,0-.56-.22-.6-.52-.32-2.23-1.48-3.66-2.12-3.62-.31.02-.93.69-1,3.09-.01.34-.3.59-.63.59-.34-.01-.6-.29-.59-.63.11-3.61,1.4-4.22,2.15-4.27.03,0,.06,0,.09,0,1.46,0,2.94,2.06,3.31,4.67.05.33-.18.64-.52.69-.03,0-.06,0-.09,0Z"/>
        <path class="cls-1" d="M26.46,152.89c-.3,0-.57-.23-.6-.54-.32-2.66.61-5.08,2.07-5.39.74-.15,2.14.1,3.19,3.56.1.32-.08.66-.41.76-.32.1-.66-.08-.76-.41-.7-2.3-1.46-2.78-1.77-2.72-.62.13-1.38,1.81-1.11,4.05.04.33-.2.64-.53.68-.02,0-.05,0-.07,0Z"/>
        <path class="cls-1" d="M38.9,162.32c-.65-1.09-1.64-1.26-2.41-.7-.18.13-.11.42.12.44.71.07,1.33.3,1.98.61.22.1.44-.14.31-.35Z"/>
        <path class="cls-1" d="M28,162.72c.65-1.09,1.64-1.26,2.41-.7.18.13.11.42-.12.44-.71.07-1.33.3-1.98.61-.22.1-.44-.14-.31-.35Z"/>
        <circle class="cls-1" cx="35.27" cy="176.73" r=".57"/>
        <circle class="cls-1" cx="33.49" cy="176.73" r=".57"/>
      </g>
    </g>
  </g>
</svg>