<?xml version="1.0" encoding="UTF-8"?>
<svg id="_レイヤー_2" data-name="レイヤー 2" xmlns="http://www.w3.org/2000/svg" width="374" height="77.36" viewBox="0 0 374 77.36">
  <defs>
    <style>
      .cls-1 {
        fill: #d3e9ea;
      }

      .cls-2 {
        fill: #fff;
      }

      .cls-3 {
        fill: #479d93;
      }
    </style>
  </defs>
  <g id="_レイヤー_1-2" data-name="レイヤー 1">
    <g>
      <rect class="cls-1" x="0" y="0" width="374" height="77.36"/>
      <rect class="cls-2" x="78.41" y="14.39" width="287.86" height="51.32" rx="25.35" ry="25.35"/>
      <g>
        <path class="cls-3" d="M104.57,34.43c0-.78-.02-1.14-.1-1.67h1.95c-.08.51-.1.9-.1,1.65v1.34h.9c.36,0,.56-.02.82-.05v1.68c-.29-.03-.54-.05-.85-.05h-.87v2.48c.49-.17.73-.25,1.43-.53l.02,1.6q-.97.37-1.45.54v4.74c0,.71-.25,1.19-.73,1.34-.34.12-.97.19-1.58.19-.29,0-.51-.02-.99-.05-.07-.71-.14-1.04-.39-1.7.61.08,1.05.12,1.44.12s.49-.08.49-.49v-3.55q-1.5.48-1.8.61l-.36-1.82c.7-.08.8-.1,2.16-.48v-3.01h-.83c-.41,0-.7.02-1.16.07v-1.73c.37.07.68.08,1.17.08h.82v-1.33ZM116.43,40.61q-.12.15-.42.66c-.85,1.41-1.48,2.24-2.38,3.11,1.26.8,2.35,1.22,4.03,1.55-.44.54-.76,1.12-1.02,1.77-2.01-.61-3.2-1.17-4.45-2.11-1.33.97-2.7,1.6-4.59,2.14-.36-.73-.58-1.1-1-1.63,1.7-.36,2.77-.8,4.27-1.73-.95-1.02-1.39-1.7-2.04-3.18-.31.02-.51.03-.78.07v-1.72c.36.07.75.08,1.31.08h5.15c.44,0,.75-.02.99-.07l.95,1.05ZM117.5,36.04c-.19,2.45-.37,2.65-2.52,2.65-.78,0-1.17-.03-1.43-.12-.49-.17-.65-.46-.65-1.22v-2.48h-1.97c-.07,2.4-.7,3.67-2.33,4.74-.39-.51-.71-.8-1.31-1.22,1.48-.82,1.95-1.89,1.95-4.44,0-.25-.02-.46-.05-.82.31.03.7.05,1.07.05h3.37c.36,0,.71-.02,1.02-.05-.03.2-.05.58-.05,1.04v2.5c0,.25.02.32.14.36.07.03.27.05.44.05.24,0,.48-.03.54-.09.15-.12.2-.44.2-1.33v-.19c0-.12,0-.31-.02-.54.93.51,1.09.58,1.6.75l-.02.36ZM110.62,41.19c.42.83.93,1.51,1.63,2.16.78-.66,1.17-1.12,1.82-2.16h-3.45Z"/>
        <path class="cls-3" d="M126.46,35.24c-.48.51-.9.88-1.55,1.38-.37-.51-.66-.78-1.1-1.09,1.29-.85,2.26-1.96,2.62-2.92l1.72.31q-.12.17-.29.46c-.08.15-.2.32-.36.53h4.79c.7,0,1.07-.02,1.36-.07l.97.77c-.14.17-.17.22-.29.41-.61.88-.83,1.17-1.51,1.84-.49-.27-.92-.44-1.51-.63.53-.36.71-.53,1.09-.97h-2.52c.51,1.61,2.21,2.5,5.15,2.65-.34.58-.49.94-.66,1.6-.68-.12-.93-.17-1.5-.31-.02.48-.02.92-.02,1.39v3.03q.02,1.44.07,1.73c-.36-.03-1.04-.05-1.73-.05h-.76c1.31.61,2.41.88,4.52,1.09-.41.48-.59.76-1.02,1.5-2.41-.41-3.59-.82-5.32-1.87l.95-.71h-4.47l1,.71c-1.7,1.04-2.79,1.43-5.17,1.87-.37-.68-.51-.87-1-1.44,2.16-.25,3.25-.54,4.35-1.14h-.66c-.77,0-1.34.02-1.73.05.03-.31.07-.97.07-1.63v-3.23c0-.75-.02-1.21-.07-1.67.32.02.94.03,1.67.03h.85c-.19-.41-.37-.68-.68-1.05-.87.41-1.1.51-2.36,1.02-.24.1-.41.17-.7.32l-.65-1.68c1.09-.2,2.53-.73,3.99-1.46l.49,1.43-.58.29c1.14-.15,1.85-.32,2.46-.6,1.02-.46,1.51-.99,1.73-1.87h-1.65ZM122.99,35.77c-.93-.75-1.51-1.1-2.58-1.6l1.05-1.24c1.21.56,1.68.83,2.65,1.5l-1.12,1.34ZM123.64,40.65h7.51v-.61h-7.51v.61ZM123.64,42.35h7.51v-.65h-7.51v.65ZM123.64,44.01h7.51v-.61h-7.51v.61ZM131.25,38.85h.56c-1.36-.49-2.14-1.12-2.79-2.16-.42.7-.8,1.05-1.51,1.48-.51.31-1,.49-1.84.68h5.58Z"/>
        <path class="cls-3" d="M141.91,43.2c.05.07.07.12.07.19q0,.1-.29.88c-.36,1.04-.58,1.89-.65,2.55-.02.22-.08.31-.31.36-.24.07-.7.1-1.14.1-.17,0-.25-.03-.31-.14-.15-.32-.42-1.5-.56-2.45-.12-.8-.17-1.63-.17-2.5,0-1.95.22-3.81.83-7.14.1-.54.14-.8.19-1.33.78.1,1.33.26,1.82.49.25.14.36.25.36.41,0,.1-.03.19-.12.32-.7,1.19-1.34,4.86-1.34,7.58,0,.41.02,1.05.07,1.87.41-1.05.6-1.53.97-2.35.12.46.24.68.58,1.14ZM144.77,38.73c-.82,0-.99-.03-1.04-.22-.05-.15-.1-.7-.1-1.09,0-.14,0-.27.02-.58.46.03.73.05,1.29.05.92,0,1.5-.02,2.38-.09-.02-2.16-.03-2.43-.2-3.23.83.02,1.46.08,2.01.22.25.07.36.15.36.32,0,.07-.02.12-.07.25-.17.39-.26,1.05-.29,2.24.63-.08,1.17-.2,2.19-.44.08-.03.12-.03.17-.03.1,0,.15.05.19.17.03.15.08.8.08,1.16,0,.42-.02.49-.19.56-.27.14-1.02.25-2.46.44,0,1.17.1,3.11.22,4.22,1.07.46,1.8.85,2.55,1.38.48.34.58.46.58.58,0,.19-.31.77-.66,1.26-.2.29-.31.37-.42.37s-.12,0-.51-.37c-.37-.37-.76-.66-1.51-1.16v.14c0,1.5-1.24,2.48-3.13,2.48s-3.18-1.02-3.18-2.55,1.29-2.67,3.01-2.67c.63,0,.95.02,1.41.08q-.07-1.33-.12-3.6c-.73.05-1.89.1-2.57.1ZM146.16,43.73c-.85,0-1.41.39-1.41.99,0,.54.53.88,1.34.88.9,0,1.38-.41,1.38-1.19,0-.24-.02-.43-.02-.43-.44-.17-.83-.25-1.29-.25Z"/>
        <path class="cls-3" d="M158.69,38.52c-1.34.14-1.68.15-2.45.15-.53,0-.61-.22-.73-1.73h.66c.83,0,1.58-.05,2.52-.15v-.36c0-1.1-.07-1.97-.24-2.89,1.29.07,1.8.14,2.16.24.17.05.24.14.24.31,0,.1-.02.17-.1.34-.15.32-.24.93-.25,2.09.56-.1,1.46-.32,2.14-.53.05-.02.08-.02.12-.02.14,0,.22.07.25.19.08.34.19,1.02.19,1.27,0,.14-.08.25-.22.31-.2.08-1.44.34-2.53.53v2.19c1.68-.56,2.99-.83,4.11-.83,2.18,0,3.59,1.39,3.59,3.55,0,1.39-.56,2.52-1.56,3.11-.53.31-1.27.49-2.09.49s-1.55-.07-1.73-.19c-.19-.1-.2-.15-.24-.56-.03-.48-.14-.88-.34-1.38.7.25,1.28.36,1.94.36,1.33,0,2.07-.68,2.07-1.89s-.71-1.89-1.85-1.89c-1.07,0-2.43.34-3.89.97q0,.07.02.73.02,1.12.02,1.36c.02.31.02.61.02.76,0,1.38-.53,2.04-1.65,2.04s-2.19-.58-2.87-1.46c-.27-.37-.41-.77-.41-1.22,0-1.1.99-2.11,3.13-3.21v-2.69ZM158.69,43.08c-.99.6-1.39.99-1.39,1.34,0,.39.56.82,1.07.82.24,0,.32-.15.32-.54v-1.62ZM168.18,39.22c-.87-.92-2.06-1.68-3.18-2.04-.14-.05-.2-.12-.2-.2,0-.1.17-.37.65-1.02.19-.25.2-.27.37-.27.17.02.82.24,1.26.44,1.07.49,2.46,1.55,2.46,1.87,0,.31-.85,1.38-1.1,1.38-.08,0-.15-.03-.25-.15Z"/>
        <path class="cls-3" d="M180.28,44.51c1.39,0,2.94-.2,4.47-.6.08-.03.14-.03.19-.03.1,0,.15.07.19.22.05.37.08.92.08,1.48,0,.34-.03.44-.19.51-.51.27-2.8.53-4.78.53-2.57,0-4.03-.42-5.2-1.53-.56-.53-1.12-1.44-1.12-1.82,0-.25.15-.36,1.55-1.16.61,1.68,2.02,2.4,4.81,2.4ZM180.44,34.73c.99,0,1.56-.03,2.72-.2h.12c.14,0,.19.05.22.15.03.2.07.71.07,1.33,0,.39-.03.53-.14.6-.14.08-1.61.19-2.75.19-1.51,0-2.77-.12-4.18-.39-.97-.19-1.02-.24-1.02-.83,0-.39.03-1.04.08-1.51,1.48.46,3.09.68,4.88.68Z"/>
        <path class="cls-3" d="M192.93,36.62c2.86-.8,4.28-1.05,5.88-1.05,1.72,0,3.06.46,3.96,1.34.75.77,1.16,1.82,1.16,3.06,0,2.18-1.17,4.03-3.21,5.07-1.09.56-2.19.93-3.71,1.22-.66.14-1,.19-1.26.19-.2,0-.31-.07-.41-.25-.39-.8-.54-1.02-1.05-1.56,2.53-.31,3.91-.65,5.24-1.31,1.45-.71,2.24-1.89,2.24-3.31,0-1.6-1.09-2.63-2.75-2.63-2.02,0-4.27.58-6.85,1.79-.46.2-.7.32-.87.42-.31.17-.39.2-.49.2-.32,0-.9-1.04-1.29-2.36.78-.1,1.56-.27,3.42-.8ZM203.08,35.82c-.17.14-.25.19-.34.19q-.1,0-.44-.46c-.32-.44-.66-.82-1.21-1.29-.05-.05-.08-.12-.08-.17,0-.15.68-.71.88-.71.12,0,.59.39,1.14.95.48.49.63.7.63.82,0,.14-.17.34-.58.68ZM204.15,34.51c-.37-.54-.85-1.07-1.36-1.51-.07-.05-.08-.08-.08-.15,0-.15.65-.66.83-.66.15,0,.49.25.94.7.56.58.8.88.8,1s-.03.17-.24.36c-.27.24-.58.46-.66.46-.05,0-.14-.05-.22-.19Z"/>
        <path class="cls-3" d="M208.91,39.1c-.14.03-.2.07-.31.12-.08.05-.14.07-.22.07-.36,0-.63-.66-.83-1.92.14.02.25.02.32.02.71,0,2.53-.22,3.62-.44.36-1.5.54-2.62.54-3.43,0-.07,0-.15-.02-.29.73.08,1.43.24,1.9.42.27.1.41.26.41.43,0,.08-.02.14-.1.27q-.25.46-.78,2.33c.41-.05.87-.08,1.16-.08.7,0,1.24.14,1.63.41.68.49,1.02,1.5,1.02,3.04,0,2.53-.46,4.69-1.24,5.76-.54.75-1.26,1.1-2.26,1.1-.61,0-1.19-.08-1.36-.19q-.14-.08-.19-.71c-.05-.46-.15-.85-.36-1.33.88.29,1.1.34,1.65.34.82,0,1.16-.39,1.53-1.75.25-.9.39-2.07.39-3.31,0-1.33-.32-1.8-1.22-1.8-.31,0-.8.03-1.19.1-.05.19-.07.2-.14.44-.48,1.73-1.34,4.03-2.21,5.86-.9,1.85-1.12,2.23-1.34,2.23-.14,0-.59-.24-1.09-.56-.39-.24-.49-.34-.49-.48q0-.08.7-1.19c.93-1.44,2.16-4.28,2.58-5.95-1.26.27-1.96.44-2.11.49ZM217.58,37.2c0-.12.15-.27.65-.66.34-.26.51-.36.63-.36.1,0,.19.05.41.27,1,.97,1.94,2.26,2.48,3.38.17.37.27.61.27.71,0,.17-.05.22-.6.66-.34.27-.73.49-.87.49-.12,0-.17-.05-.29-.34-.34-.83-.66-1.48-1.07-2.11-.44-.68-.53-.78-1.53-1.85-.07-.1-.09-.15-.09-.2Z"/>
        <path class="cls-3" d="M225.61,36.38c0-.49-.02-1.16-.05-1.53.78.08,1.36.2,1.82.37.41.15.54.25.54.44q0,.1-.07.27c-.22.58-.29,1.22-.29,2.77,0,2.18.14,3.54.48,4.57.26.8.65,1.26,1.11,1.26.7,0,1.27-.82,1.9-2.7.32.87.44,1.12.92,1.73.08.12.14.24.14.36,0,.27-.26.85-.6,1.34-.66.97-1.51,1.5-2.41,1.5-1.31,0-2.29-1.05-2.91-3.15-.39-1.36-.58-3.08-.58-5.46v-1.79ZM235.72,36.65c.1,0,.19.05.32.17.85.82,1.73,2.18,2.29,3.5.37.9.73,2.11.73,2.46,0,.17-.08.26-.44.44-.39.2-1.19.48-1.39.48-.15,0-.22-.08-.27-.39-.22-1.31-.53-2.26-1.05-3.37-.48-.99-.51-1.04-1.67-2.46.71-.53,1.27-.83,1.48-.83Z"/>
        <path class="cls-3" d="M247.04,38.47c-.22-.75-.29-1.21-.49-3.3-.07-.82-.14-1.22-.31-1.8,1.04.02,1.7.07,2.16.19.25.07.37.19.37.37,0,.07-.02.15-.05.29-.12.41-.17.71-.17,1.16,0,.83.17,2.19.36,2.79.1.32.2.44.39.44.41,0,1.9-.78,2.72-1.41.22-.17.25-.19.34-.19.15,0,.31.12.56.44.42.58.76,1.21.76,1.44,0,.19-.12.31-.41.39-1.05.29-2.79.97-3.96,1.53-2.07,1.02-3.01,1.96-3.01,3.01s.87,1.46,3.06,1.46c1.27,0,2.43-.12,3.99-.37.07-.02.19-.03.22-.03.14,0,.22.07.29.2.05.17.17,1.21.17,1.61,0,.24-.07.32-.29.39-.37.08-2.43.2-3.72.2-2.18,0-3.62-.29-4.52-.9-.77-.53-1.17-1.36-1.17-2.38,0-.78.22-1.48.68-2.16.59-.88,1.24-1.44,2.67-2.29-.36-.32-.49-.56-.65-1.09Z"/>
        <path class="cls-3" d="M260.76,41.31c0-.77.02-1.24.03-1.96-.39.77-.63,1.14-1.1,1.75-.31-1.05-.39-1.26-.75-1.92.76-.88,1.33-1.8,1.9-3.11.53-1.19.83-2.18,1.02-3.3l1.72.54c-.05.14-.07.19-.1.32q-.05.15-.14.41s-.02.07-.05.15c-.12.46-.24.85-.34,1.12-.02.05-.14.37-.32.83-.03.1-.1.25-.17.46v9.2c0,.85.02,1.38.08,1.96h-1.89c.07-.61.1-1.17.1-1.96v-4.5ZM264.3,35.02c0-.9-.02-1.27-.1-1.78h1.92c-.08.46-.1.88-.1,1.78v7.43c.88-.37,1.92-.88,3.11-1.53l.07,1.6c-1.34.76-2.18,1.21-3.3,1.75q-.34.15-1.48.66c-.14.07-.29.14-.48.22q-.31.14-.58.29l-.31-1.94c.41-.1.54-.14,1.24-.39v-8.09ZM273.48,33.15c-.05.32-.1.93-.12,1.44-.19,4.44-.59,6.48-1.63,8.38.83,1.44,1.46,2.09,3.01,3.13-.58.75-.75,1-1.1,1.73-1.43-1.17-2.19-2.06-2.96-3.38-1.12,1.31-2.52,2.35-4.56,3.37-.32-.63-.53-.9-1.14-1.58,1.36-.56,2.16-1,3.13-1.73,1.19-.88,1.8-1.6,2.33-2.69.51-1.07.8-2.23.95-3.88.12-1.16.19-2.63.19-3.76,0-.63,0-.78-.05-1.09l1.96.05ZM268.97,39.32c-.78-1.82-1.22-2.62-2.31-4.08l1.46-.94c1.07,1.53,1.56,2.36,2.38,4.01l-1.53,1Z"/>
        <path class="cls-3" d="M279.73,37.45c-.44.1-.59.15-1.21.37-.22.08-.34.12-.44.12-.37,0-.71-.7-1.02-2.16,1.09-.05,1.48-.1,3.37-.39,2.04-.31,4.62-.7,5.98-.87,1.53-.2,2.75-.41,3.4-.54.12-.03.17-.03.25-.03.22,0,.31.1.46.53.14.36.24.87.24,1.1,0,.2-.07.27-.31.27-.36,0-.68.03-1,.08-2.87.48-5.17,2.99-5.17,5.64,0,1.99,1.56,3.3,4.22,3.54.24.02.32.1.32.31,0,.43-.17,1.24-.32,1.62-.08.19-.22.27-.44.27s-.73-.1-1.26-.26c-2.89-.85-4.4-2.69-4.4-5.29,0-1.41.46-2.72,1.34-3.84.48-.61.88-.95,1.85-1.61-2.23.37-4.57.82-5.86,1.14Z"/>
        <path class="cls-3" d="M303.41,38.76c2.4,0,4.1,1.63,4.1,3.94,0,1.58-.83,3.01-2.23,3.84-.97.58-2.16.87-3.5.87-2.16,0-3.42-.87-3.42-2.35,0-1.34,1.12-2.29,2.72-2.29,1.44,0,2.48.73,3.18,2.23.87-.63,1.22-1.29,1.22-2.21,0-1.46-1.04-2.41-2.67-2.41s-3.45.83-4.93,2.31c-.27.27-.53.56-.83.95-.12.17-.2.24-.31.24-.31,0-1.51-1.19-1.51-1.5,0-.15.07-.24.44-.51.39-.31.95-.8,1.67-1.48,1.65-1.56,2.86-2.87,4.64-5.05-2.12.27-3.55.51-4.08.7-.08.02-.14.03-.19.03-.14,0-.22-.08-.32-.34-.2-.51-.31-1.07-.36-1.82.46.07.78.08,1.16.08.82,0,2.19-.12,3.98-.32.63-.07.83-.12,1.31-.31.15-.07.24-.08.34-.08.24,0,.48.2.92.88.32.44.42.66.42.8,0,.22-.05.29-.42.53-.31.19-.49.34-.88.71-.85.82-.87.82-1.92,1.89-.75.77-.83.85-1.51,1.53,1.11-.61,1.97-.87,2.99-.87ZM301.78,44.64c-.25-.17-.54-.25-.87-.25-.53,0-.87.25-.87.66,0,.49.53.8,1.34.8.37,0,.7-.03,1.12-.15-.2-.56-.37-.82-.73-1.05Z"/>
        <path class="cls-3" d="M314.74,36.18c.39-1.02.77-1.56,1.41-2.11.78-.65,1.72-.95,2.91-.95,2.55,0,4.18,1.39,4.18,3.57,0,.73-.2,1.43-.59,1.99-.31.44-.44.58-1.39,1.44-1.33,1.19-1.62,1.65-1.62,2.55v.9h-1.73v-.95c0-.76.15-1.44.46-1.99.24-.42.49-.71,1.17-1.39.71-.7.93-.95,1.12-1.26.24-.34.37-.82.37-1.27,0-1.14-.77-1.85-1.97-1.85s-1.92.63-2.43,2.11l-1.89-.78ZM320.16,46.09c0,.75-.59,1.34-1.34,1.34s-1.34-.59-1.34-1.34.59-1.34,1.34-1.34,1.34.59,1.34,1.34Z"/>
      </g>
      <g>
        <g>
          <path class="cls-3" d="M28.44,36.42c.02-1.97.63-3.49,1.83-4.55,1.13-1.05,2.47-1.58,4.03-1.58s2.98.53,4.11,1.58c1.15,1.06,1.74,2.58,1.77,4.56v9.42c-.04,1.96-.63,3.48-1.77,4.54-1.13,1.05-2.5,1.59-4.11,1.61-1.56-.02-2.91-.56-4.03-1.61-1.2-1.06-1.81-2.57-1.83-4.53v-9.44ZM37.23,36.61c-.06-2.14-1.03-3.23-2.92-3.27-1.9.04-2.87,1.13-2.91,3.27v9.07c.04,2.16,1.01,3.25,2.91,3.27,1.89-.02,2.87-1.11,2.92-3.27v-9.07Z"/>
          <path class="cls-3" d="M42.82,48.95l8.09-10.45c.31-.42.53-.81.64-1.17.08-.34.11-.67.11-.97,0-.8-.24-1.5-.73-2.1-.5-.6-1.21-.9-2.13-.92-.82,0-1.5.27-2.04.81-.56.54-.89,1.3-1,2.28h-2.96c.08-1.77.65-3.24,1.73-4.4,1.09-1.13,2.43-1.71,4.02-1.73,1.78.02,3.22.61,4.33,1.76,1.13,1.14,1.7,2.6,1.72,4.35,0,1.41-.42,2.66-1.25,3.75l-6.66,8.62h7.91v3.05h-11.8v-2.87Z"/>
        </g>
        <path class="cls-3" d="M19.56,43.68c-.76.79-1.8,1.41-3.01,1.81-.17-.32-.31-.52-.56-.82,1.2-.29,2.21-.79,2.94-1.47h-1.5c-.05.18-.06.22-.13.43l-1.01-.02c.24-.56.38-1.02.49-1.58.08-.39.14-.77.14-.95.17.02.4.03.82.03h1.78l-.02-.58h-1.93c-.34,0-.56,0-.8.04v-.83c-.1.08-.13.12-.26.23-.17-.29-.35-.5-.56-.69.74-.57,1.16-1.12,1.35-1.76l.93.17c-.11.23-.14.29-.25.47h1.11c.41,0,.64-.02.85-.04v.7c.34-.4.55-.78.7-1.3l.92.16q-.07.17-.22.49h1.65c.46,0,.67,0,.95-.05v.9c-.26-.04-.52-.05-.9-.05h-.68c.23.33.23.35.38.59l-.71.2h.41c.43,0,.59,0,.81-.03-.03.16-.04.3-.04.61v.91c0,.31,0,.45.04.63-.2-.02-.47-.03-.81-.03h-1.99v.57h2.47c.33,0,.52,0,.74-.03-.02.11-.02.17-.03.26t-.03.26s-.02.22-.05.55c-.09.86-.14,1.07-.31,1.27-.17.2-.43.26-1.02.26-.25,0-.43,0-.8-.03-.05-.36-.11-.56-.22-.85.33.04.74.08.95.08.47,0,.49-.05.55-1.01h-2.22l.02,1.45c0,.46.02.68.06.95h-1.02c.04-.25.05-.4.05-.75v-.22l-.02-.96ZM18.33,39.77c-.11-.29-.22-.5-.39-.8h-.48c-.21.29-.4.5-.68.77.21.03.38.04.79.04h.75ZM19.54,41.87h-1.77c-.03.19-.04.21-.12.57h1.9v-.57ZM20.03,39.77c-.13-.16-.31-.33-.56-.51.15-.12.2-.15.32-.27-.15,0-.32-.02-.49-.02h-.48c.11.17.17.26.34.58l-.71.22h1.58ZM21.86,39.77c-.1-.22-.26-.51-.44-.79h-.53c-.23.33-.42.55-.69.79h1.67ZM20.44,41.11h1.87v-.58h-1.88v.58Z"/>
        <path class="cls-3" d="M66.98,45.58v-.47h-5.38v.47h-1.01c.04-.28.05-.64.05-1.12v-5.46c0-.42-.02-.69-.05-1.04.32.04.59.05,1.02.05h5.36c.42,0,.7,0,1.02-.05-.04.32-.04.6-.04,1.04v5.47c0,.47.02.89.04,1.11h-1ZM61.6,44.25h5.38v-5.39h-5.38v5.39ZM65.2,39.84c.38,0,.6,0,.83-.03-.02.21-.03.41-.03.68v2.06c0,.29,0,.47.03.68-.26-.02-.47-.03-.83-.03h-1.85c-.43,0-.57,0-.84.03.03-.23.04-.42.04-.68v-2.06c0-.25,0-.45-.04-.68.22.02.46.03.84.03h1.85ZM63.46,42.41h1.63v-1.76h-1.63v1.76Z"/>
      </g>
    </g>
  </g>
</svg>